<?xml version="1.0" encoding="utf-8" standalone="no"?>
<!DOCTYPE svg PUBLIC "-//W3C//DTD SVG 1.1//EN"
  "http://www.w3.org/Graphics/SVG/1.1/DTD/svg11.dtd">
<!-- Created with matplotlib (https://matplotlib.org/) -->
<svg height="288pt" version="1.1" viewBox="0 0 432 288" width="432pt" xmlns="http://www.w3.org/2000/svg" xmlns:xlink="http://www.w3.org/1999/xlink">
 <metadata>
  <rdf:RDF xmlns:cc="http://creativecommons.org/ns#" xmlns:dc="http://purl.org/dc/elements/1.1/" xmlns:rdf="http://www.w3.org/1999/02/22-rdf-syntax-ns#">
   <cc:Work>
    <dc:type rdf:resource="http://purl.org/dc/dcmitype/StillImage"/>
    <dc:date>2022-11-13T17:46:41.624198</dc:date>
    <dc:format>image/svg+xml</dc:format>
    <dc:creator>
     <cc:Agent>
      <dc:title>Matplotlib v3.3.4, https://matplotlib.org/</dc:title>
     </cc:Agent>
    </dc:creator>
   </cc:Work>
  </rdf:RDF>
 </metadata>
 <defs>
  <style type="text/css">*{stroke-linecap:butt;stroke-linejoin:round;}</style>
 </defs>
 <g id="figure_1">
  <g id="patch_1">
   <path d="M 0 288 
L 432 288 
L 432 0 
L 0 0 
z
" style="fill:#ffffff;"/>
  </g>
  <g id="axes_1">
   <g id="patch_2">
    <path d="M 51.05 255.2 
L 416.236093 255.2 
L 416.236093 10.8 
L 51.05 10.8 
z
" style="fill:#ffffff;"/>
   </g>
   <g id="PolyCollection_1">
    <defs>
     <path d="M 67.649368 -265.774704 
L 67.649368 -43.909091 
L 68.338081 -43.909091 
L 69.026793 -43.909091 
L 69.715506 -43.909091 
L 70.404219 -43.909091 
L 71.092931 -43.909091 
L 71.781644 -43.909091 
L 72.470357 -43.909091 
L 73.159069 -43.909091 
L 73.847782 -43.909091 
L 74.536495 -43.909091 
L 75.225208 -43.909091 
L 75.91392 -43.909091 
L 76.602633 -43.909091 
L 77.291346 -43.909091 
L 77.980058 -43.909091 
L 78.668771 -43.909091 
L 79.357484 -43.909091 
L 80.046196 -43.909091 
L 80.734909 -43.909091 
L 81.423622 -43.909091 
L 82.112335 -43.909091 
L 82.801047 -43.909091 
L 83.48976 -43.909091 
L 84.178473 -43.909091 
L 84.867185 -43.909091 
L 85.555898 -43.909091 
L 86.244611 -43.909091 
L 86.933323 -43.909091 
L 87.622036 -43.909091 
L 88.310749 -43.909091 
L 88.999462 -43.909091 
L 89.688174 -43.909091 
L 90.376887 -43.909091 
L 91.0656 -43.909091 
L 91.754312 -43.909091 
L 92.443025 -43.909091 
L 93.131738 -43.909091 
L 93.82045 -43.909091 
L 94.509163 -43.909091 
L 95.197876 -43.909091 
L 95.886589 -43.909091 
L 96.575301 -43.909091 
L 97.264014 -43.909091 
L 97.952727 -43.909091 
L 98.641439 -43.909091 
L 99.330152 -43.909091 
L 100.018865 -43.909091 
L 100.707577 -43.909091 
L 101.39629 -43.909091 
L 102.085003 -43.909091 
L 102.773716 -43.909091 
L 103.462428 -43.909091 
L 104.151141 -43.909091 
L 104.839854 -43.909091 
L 105.528566 -43.909091 
L 106.217279 -43.909091 
L 106.905992 -43.909091 
L 107.594704 -43.909091 
L 108.283417 -43.909091 
L 108.97213 -43.909091 
L 109.660843 -43.909091 
L 110.349555 -43.909091 
L 111.038268 -43.909091 
L 111.726981 -43.909091 
L 112.415693 -43.909091 
L 113.104406 -43.909091 
L 113.793119 -43.909091 
L 114.481831 -43.909091 
L 115.170544 -43.909091 
L 115.859257 -43.909091 
L 116.54797 -43.909091 
L 117.236682 -43.909091 
L 117.925395 -43.909091 
L 118.614108 -43.909091 
L 119.30282 -43.909091 
L 119.991533 -43.909091 
L 120.680246 -43.909091 
L 121.368958 -43.909091 
L 122.057671 -43.909091 
L 122.746384 -43.909091 
L 123.435097 -43.909091 
L 124.123809 -43.909091 
L 124.812522 -43.909091 
L 125.501235 -43.909091 
L 126.189947 -43.909091 
L 126.87866 -43.909091 
L 127.567373 -43.909091 
L 128.256085 -43.909091 
L 128.944798 -43.909091 
L 129.633511 -43.909091 
L 130.322224 -43.909091 
L 131.010936 -43.909091 
L 131.699649 -43.909091 
L 132.388362 -43.909091 
L 133.077074 -43.909091 
L 133.765787 -43.909091 
L 134.4545 -43.909091 
L 135.143212 -43.909091 
L 135.831925 -43.909091 
L 136.520638 -43.909091 
L 137.209351 -43.909091 
L 137.898063 -43.909091 
L 138.586776 -43.909091 
L 139.275489 -43.909091 
L 139.964201 -43.909091 
L 140.652914 -43.909091 
L 141.341627 -43.909091 
L 142.03034 -43.909091 
L 142.719052 -43.909091 
L 143.407765 -43.909091 
L 144.096478 -43.909091 
L 144.78519 -43.909091 
L 145.473903 -43.909091 
L 146.162616 -43.909091 
L 146.851328 -43.909091 
L 147.540041 -43.909091 
L 148.228754 -43.909091 
L 148.917467 -43.909091 
L 149.606179 -43.909091 
L 150.294892 -43.909091 
L 150.983605 -43.909091 
L 151.672317 -43.909091 
L 152.36103 -43.909091 
L 153.049743 -43.909091 
L 153.738455 -43.909091 
L 154.427168 -43.909091 
L 155.115881 -43.909091 
L 155.804594 -43.909091 
L 156.493306 -43.909091 
L 157.182019 -43.909091 
L 157.870732 -43.909091 
L 158.559444 -43.909091 
L 159.248157 -43.909091 
L 159.93687 -43.909091 
L 160.625582 -43.909091 
L 161.314295 -43.909091 
L 162.003008 -43.909091 
L 162.691721 -43.909091 
L 163.380433 -43.909091 
L 164.069146 -43.909091 
L 164.757859 -43.909091 
L 165.446571 -43.909091 
L 166.135284 -43.909091 
L 166.823997 -43.909091 
L 167.512709 -43.909091 
L 168.201422 -43.909091 
L 168.890135 -43.909091 
L 169.578848 -43.909091 
L 170.26756 -43.909091 
L 170.956273 -43.909091 
L 171.644986 -43.909091 
L 172.333698 -43.909091 
L 173.022411 -43.909091 
L 173.711124 -43.909091 
L 174.399836 -43.909091 
L 175.088549 -43.909091 
L 175.777262 -43.909091 
L 176.465975 -43.909091 
L 177.154687 -43.909091 
L 177.8434 -43.909091 
L 178.532113 -43.909091 
L 179.220825 -43.909091 
L 179.909538 -43.909091 
L 180.598251 -43.909091 
L 181.286963 -43.909091 
L 181.975676 -43.909091 
L 182.664389 -43.909091 
L 183.353102 -43.909091 
L 184.041814 -43.909091 
L 184.730527 -43.909091 
L 185.41924 -43.909091 
L 186.107952 -43.909091 
L 186.796665 -43.909091 
L 187.485378 -43.909091 
L 188.17409 -43.909091 
L 188.862803 -43.909091 
L 189.551516 -43.909091 
L 190.240229 -43.909091 
L 190.928941 -43.909091 
L 191.617654 -43.909091 
L 192.306367 -43.909091 
L 192.995079 -43.909091 
L 193.683792 -43.909091 
L 194.372505 -43.909091 
L 195.061217 -43.909091 
L 195.74993 -43.909091 
L 196.438643 -43.909091 
L 197.127356 -43.909091 
L 197.816068 -43.909091 
L 198.504781 -43.909091 
L 199.193494 -43.909091 
L 199.882206 -43.909091 
L 200.570919 -43.909091 
L 201.259632 -43.909091 
L 201.948344 -43.909091 
L 202.637057 -43.909091 
L 203.32577 -43.909091 
L 204.014483 -43.909091 
L 204.703195 -43.909091 
L 205.391908 -43.909091 
L 206.080621 -43.909091 
L 206.769333 -43.909091 
L 207.458046 -43.909091 
L 208.146759 -43.909091 
L 208.835471 -43.909091 
L 209.524184 -43.909091 
L 210.212897 -43.909091 
L 210.90161 -43.909091 
L 211.590322 -43.909091 
L 212.279035 -43.909091 
L 212.967748 -43.909091 
L 213.65646 -43.909091 
L 214.345173 -43.909091 
L 215.033886 -43.909091 
L 215.722598 -43.909091 
L 216.411311 -43.909091 
L 217.100024 -43.909091 
L 217.788737 -43.909091 
L 218.477449 -43.909091 
L 219.166162 -43.909091 
L 219.854875 -43.909091 
L 220.543587 -43.909091 
L 221.2323 -43.909091 
L 221.921013 -43.909091 
L 222.609725 -43.909091 
L 223.298438 -43.909091 
L 223.987151 -43.909091 
L 224.675864 -43.909091 
L 225.364576 -43.909091 
L 226.053289 -43.909091 
L 226.742002 -43.909091 
L 227.430714 -43.909091 
L 228.119427 -43.909091 
L 228.80814 -43.909091 
L 229.496852 -43.909091 
L 230.185565 -43.909091 
L 230.874278 -43.909091 
L 231.562991 -43.909091 
L 232.251703 -43.909091 
L 232.940416 -43.909091 
L 233.629129 -43.909091 
L 234.317841 -43.909091 
L 235.006554 -43.909091 
L 235.695267 -43.909091 
L 236.383979 -43.909091 
L 237.072692 -43.909091 
L 237.761405 -43.909091 
L 238.450118 -43.909091 
L 239.13883 -43.909091 
L 239.827543 -43.909091 
L 240.516256 -43.909091 
L 241.204968 -43.909091 
L 241.893681 -43.909091 
L 242.582394 -43.909091 
L 243.271106 -43.909091 
L 243.959819 -43.909091 
L 244.648532 -43.909091 
L 245.337245 -43.909091 
L 246.025957 -43.909091 
L 246.71467 -43.909091 
L 247.403383 -43.909091 
L 248.092095 -43.909091 
L 248.780808 -43.909091 
L 249.469521 -43.909091 
L 250.158233 -43.909091 
L 250.846946 -43.909091 
L 251.535659 -43.909091 
L 252.224372 -43.909091 
L 252.913084 -43.909091 
L 253.601797 -43.909091 
L 254.29051 -43.909091 
L 254.979222 -43.909091 
L 255.667935 -43.909091 
L 256.356648 -43.909091 
L 257.04536 -43.909091 
L 257.734073 -43.909091 
L 258.422786 -43.909091 
L 259.111499 -43.909091 
L 259.800211 -43.909091 
L 260.488924 -43.909091 
L 261.177637 -43.909091 
L 261.866349 -43.909091 
L 262.555062 -43.909091 
L 263.243775 -43.909091 
L 263.932487 -43.909091 
L 264.6212 -43.909091 
L 265.309913 -43.909091 
L 265.998626 -43.909091 
L 266.687338 -43.909091 
L 267.376051 -43.909091 
L 268.064764 -43.909091 
L 268.753476 -43.909091 
L 269.442189 -43.909091 
L 270.130902 -43.909091 
L 270.819615 -43.909091 
L 271.508327 -43.909091 
L 272.19704 -43.909091 
L 272.885753 -43.909091 
L 273.574465 -43.909091 
L 274.263178 -43.909091 
L 274.951891 -43.909091 
L 275.640603 -43.909091 
L 276.329316 -43.909091 
L 277.018029 -43.909091 
L 277.706742 -43.909091 
L 278.395454 -43.909091 
L 279.084167 -43.909091 
L 279.77288 -43.909091 
L 280.461592 -43.909091 
L 281.150305 -43.909091 
L 281.839018 -43.909091 
L 282.52773 -43.909091 
L 283.216443 -43.909091 
L 283.905156 -43.909091 
L 284.593869 -43.909091 
L 285.282581 -43.909091 
L 285.971294 -43.909091 
L 286.660007 -43.909091 
L 287.348719 -43.909091 
L 288.037432 -43.909091 
L 288.726145 -43.909091 
L 289.414857 -43.909091 
L 290.10357 -43.909091 
L 290.792283 -43.909091 
L 291.480996 -43.909091 
L 292.169708 -43.909091 
L 292.858421 -43.909091 
L 293.547134 -43.909091 
L 294.235846 -43.909091 
L 294.924559 -43.909091 
L 295.613272 -43.909091 
L 296.301984 -43.909091 
L 296.990697 -43.909091 
L 297.67941 -43.909091 
L 298.368123 -43.909091 
L 299.056835 -43.909091 
L 299.745548 -43.909091 
L 300.434261 -43.909091 
L 301.122973 -43.909091 
L 301.811686 -43.909091 
L 302.500399 -43.909091 
L 303.189111 -43.909091 
L 303.877824 -43.909091 
L 304.566537 -43.909091 
L 305.25525 -43.909091 
L 305.943962 -43.909091 
L 306.632675 -43.909091 
L 307.321388 -43.909091 
L 308.0101 -43.909091 
L 308.698813 -43.909091 
L 309.387526 -43.909091 
L 310.076238 -43.909091 
L 310.764951 -43.909091 
L 311.453664 -43.909091 
L 312.142377 -43.909091 
L 312.831089 -43.909091 
L 313.519802 -43.909091 
L 314.208515 -43.909091 
L 314.897227 -43.909091 
L 315.58594 -43.909091 
L 316.274653 -43.909091 
L 316.963365 -43.909091 
L 317.652078 -43.909091 
L 318.340791 -43.909091 
L 319.029504 -43.909091 
L 319.718216 -43.909091 
L 320.406929 -43.909091 
L 321.095642 -43.909091 
L 321.784354 -43.909091 
L 322.473067 -43.909091 
L 323.16178 -43.909091 
L 323.850492 -43.909091 
L 324.539205 -43.909091 
L 325.227918 -43.909091 
L 325.916631 -43.909091 
L 326.605343 -43.909091 
L 327.294056 -43.909091 
L 327.982769 -43.909091 
L 328.671481 -43.909091 
L 329.360194 -43.909091 
L 330.048907 -43.909091 
L 330.737619 -43.909091 
L 331.426332 -43.909091 
L 332.115045 -43.909091 
L 332.803758 -43.909091 
L 333.49247 -43.909091 
L 334.181183 -43.909091 
L 334.869896 -43.909091 
L 335.558608 -43.909091 
L 336.247321 -43.909091 
L 336.936034 -43.909091 
L 337.624746 -43.909091 
L 338.313459 -43.909091 
L 339.002172 -43.909091 
L 339.690885 -43.909091 
L 340.379597 -43.909091 
L 341.06831 -43.909091 
L 341.757023 -43.909091 
L 342.445735 -43.909091 
L 343.134448 -43.909091 
L 343.823161 -43.909091 
L 344.511873 -43.909091 
L 345.200586 -43.909091 
L 345.889299 -43.909091 
L 346.578012 -43.909091 
L 347.266724 -43.909091 
L 347.955437 -43.909091 
L 348.64415 -43.909091 
L 349.332862 -43.909091 
L 350.021575 -43.909091 
L 350.710288 -43.909091 
L 351.399 -43.909091 
L 352.087713 -43.909091 
L 352.776426 -43.909091 
L 353.465139 -43.909091 
L 354.153851 -43.909091 
L 354.842564 -43.909091 
L 355.531277 -43.909091 
L 356.219989 -43.909091 
L 356.908702 -43.909091 
L 357.597415 -43.909091 
L 358.286127 -43.909091 
L 358.97484 -43.909091 
L 359.663553 -43.909091 
L 360.352266 -43.909091 
L 361.040978 -43.909091 
L 361.729691 -43.909091 
L 362.418404 -43.909091 
L 363.107116 -43.909091 
L 363.795829 -43.909091 
L 364.484542 -43.909091 
L 365.173254 -43.909091 
L 365.861967 -43.909091 
L 366.55068 -43.909091 
L 367.239393 -43.909091 
L 367.928105 -43.909091 
L 368.616818 -43.909091 
L 369.305531 -43.909091 
L 369.994243 -43.909091 
L 370.682956 -43.909091 
L 371.371669 -43.909091 
L 372.060381 -43.909091 
L 372.749094 -43.909091 
L 373.437807 -43.909091 
L 374.12652 -43.909091 
L 374.815232 -43.909091 
L 375.503945 -43.909091 
L 376.192658 -43.909091 
L 376.88137 -43.909091 
L 377.570083 -43.909091 
L 378.258796 -43.909091 
L 378.947508 -43.909091 
L 379.636221 -43.909091 
L 380.324934 -43.909091 
L 381.013647 -43.909091 
L 381.702359 -43.909091 
L 382.391072 -43.909091 
L 383.079785 -43.909091 
L 383.768497 -43.909091 
L 384.45721 -43.909091 
L 385.145923 -43.909091 
L 385.834635 -43.909091 
L 386.523348 -43.909091 
L 387.212061 -43.909091 
L 387.900774 -43.909091 
L 388.589486 -43.909091 
L 389.278199 -43.909091 
L 389.966912 -43.909091 
L 390.655624 -43.909091 
L 391.344337 -43.909091 
L 392.03305 -43.909091 
L 392.721762 -43.909091 
L 393.410475 -43.909091 
L 394.099188 -43.909091 
L 394.787901 -43.909091 
L 395.476613 -43.909091 
L 396.165326 -43.909091 
L 396.854039 -43.909091 
L 397.542751 -43.909091 
L 399.636725 -43.909091 
L 399.636725 -99.486748 
L 399.636725 -99.486748 
L 397.542751 -99.358458 
L 396.854039 -99.315907 
L 396.165326 -99.273178 
L 395.476613 -99.230269 
L 394.787901 -99.18718 
L 394.099188 -99.143908 
L 393.410475 -99.100453 
L 392.721762 -99.056812 
L 392.03305 -99.012986 
L 391.344337 -98.968971 
L 390.655624 -98.924768 
L 389.966912 -98.880374 
L 389.278199 -98.835788 
L 388.589486 -98.791062 
L 387.900774 -98.746478 
L 387.212061 -98.701705 
L 386.523348 -98.656742 
L 385.834635 -98.611588 
L 385.145923 -98.566241 
L 384.45721 -98.520699 
L 383.768497 -98.474962 
L 383.079785 -98.429028 
L 382.391072 -98.382895 
L 381.702359 -98.336622 
L 381.013647 -98.290103 
L 380.324934 -98.243324 
L 379.636221 -98.196341 
L 378.947508 -98.149154 
L 378.258796 -98.10176 
L 377.570083 -98.054159 
L 376.88137 -98.006348 
L 376.192658 -97.958327 
L 375.503945 -97.910093 
L 374.815232 -97.861644 
L 374.12652 -97.812981 
L 373.437807 -97.76394 
L 372.749094 -97.714326 
L 372.060381 -97.664512 
L 371.371669 -97.614496 
L 370.682956 -97.564277 
L 369.994243 -97.513852 
L 369.305531 -97.46322 
L 368.616818 -97.412379 
L 367.928105 -97.361327 
L 367.239393 -97.310063 
L 366.55068 -97.258584 
L 365.861967 -97.206889 
L 365.173254 -97.154975 
L 364.484542 -97.102842 
L 363.795829 -97.050799 
L 363.107116 -96.998673 
L 362.418404 -96.946324 
L 361.729691 -96.893749 
L 361.040978 -96.840948 
L 360.352266 -96.787918 
L 359.663553 -96.734657 
L 358.97484 -96.681163 
L 358.286127 -96.627434 
L 357.597415 -96.573467 
L 356.908702 -96.519262 
L 356.219989 -96.464815 
L 355.531277 -96.410124 
L 354.842564 -96.355188 
L 354.153851 -96.300003 
L 353.465139 -96.244569 
L 352.776426 -96.188881 
L 352.087713 -96.13294 
L 351.399 -96.076741 
L 350.710288 -96.020282 
L 350.021575 -95.963562 
L 349.332862 -95.906578 
L 348.64415 -95.849327 
L 347.955437 -95.791807 
L 347.266724 -95.734016 
L 346.578012 -95.67595 
L 345.889299 -95.617608 
L 345.200586 -95.558987 
L 344.511873 -95.500083 
L 343.823161 -95.440895 
L 343.134448 -95.38142 
L 342.445735 -95.321655 
L 341.757023 -95.261597 
L 341.06831 -95.201244 
L 340.379597 -95.140592 
L 339.690885 -95.079638 
L 339.002172 -95.01838 
L 338.313459 -94.956815 
L 337.624746 -94.894939 
L 336.936034 -94.83275 
L 336.247321 -94.770244 
L 335.558608 -94.707418 
L 334.869896 -94.644268 
L 334.181183 -94.580792 
L 333.49247 -94.516986 
L 332.803758 -94.452846 
L 332.115045 -94.388074 
L 331.426332 -94.322193 
L 330.737619 -94.25604 
L 330.048907 -94.189612 
L 329.360194 -94.122903 
L 328.671481 -94.055911 
L 327.982769 -93.988629 
L 327.294056 -93.921056 
L 326.605343 -93.853184 
L 325.916631 -93.785011 
L 325.227918 -93.716532 
L 324.539205 -93.647741 
L 323.850492 -93.578633 
L 323.16178 -93.509205 
L 322.473067 -93.43945 
L 321.784354 -93.369363 
L 321.095642 -93.298938 
L 320.406929 -93.228171 
L 319.718216 -93.157056 
L 319.029504 -93.072139 
L 318.340791 -92.988891 
L 317.652078 -92.907353 
L 316.963365 -92.827417 
L 316.274653 -92.748983 
L 315.58594 -92.671952 
L 314.897227 -92.596231 
L 314.208515 -92.52207 
L 313.519802 -92.449118 
L 312.831089 -92.377204 
L 312.142377 -92.306248 
L 311.453664 -92.236177 
L 310.764951 -92.166917 
L 310.076238 -92.0984 
L 309.387526 -92.030558 
L 308.698813 -91.963328 
L 308.0101 -91.896647 
L 307.321388 -91.830456 
L 306.632675 -91.764696 
L 305.943962 -91.699313 
L 305.25525 -91.634252 
L 304.566537 -91.569462 
L 303.877824 -91.506882 
L 303.189111 -91.44501 
L 302.500399 -91.383479 
L 301.811686 -91.322254 
L 301.122973 -91.261302 
L 300.434261 -91.200591 
L 299.745548 -91.140091 
L 299.056835 -91.079774 
L 298.368123 -91.019613 
L 297.67941 -90.959581 
L 296.990697 -90.899655 
L 296.301984 -90.839811 
L 295.613272 -90.780028 
L 294.924559 -90.720285 
L 294.235846 -90.660562 
L 293.547134 -90.600841 
L 292.858421 -90.541104 
L 292.169708 -90.481335 
L 291.480996 -90.421517 
L 290.792283 -90.361637 
L 290.10357 -90.30168 
L 289.414857 -90.241633 
L 288.726145 -90.181483 
L 288.037432 -90.121219 
L 287.348719 -90.06083 
L 286.660007 -90.000304 
L 285.971294 -89.939633 
L 285.282581 -89.878808 
L 284.593869 -89.817818 
L 283.905156 -89.756501 
L 283.216443 -89.694618 
L 282.52773 -89.632561 
L 281.839018 -89.570322 
L 281.150305 -89.507895 
L 280.461592 -89.445274 
L 279.77288 -89.382453 
L 279.084167 -89.319427 
L 278.395454 -89.256191 
L 277.706742 -89.192741 
L 277.018029 -89.129089 
L 276.329316 -89.065681 
L 275.640603 -89.0022 
L 274.951891 -88.938491 
L 274.263178 -88.874553 
L 273.574465 -88.810381 
L 272.885753 -88.745973 
L 272.19704 -88.681327 
L 271.508327 -88.616441 
L 270.819615 -88.551109 
L 270.130902 -88.48548 
L 269.442189 -88.419598 
L 268.753476 -88.353462 
L 268.064764 -88.28731 
L 267.376051 -88.221107 
L 266.687338 -88.154651 
L 265.998626 -88.087938 
L 265.309913 -88.02097 
L 264.6212 -87.953745 
L 263.932487 -87.886262 
L 263.243775 -87.818521 
L 262.555062 -87.750522 
L 261.866349 -87.682264 
L 261.177637 -87.613748 
L 260.488924 -87.544972 
L 259.800211 -87.475939 
L 259.111499 -87.406647 
L 258.422786 -87.337097 
L 257.734073 -87.26729 
L 257.04536 -87.197227 
L 256.356648 -87.126908 
L 255.667935 -87.056334 
L 254.979222 -86.985507 
L 254.29051 -86.914428 
L 253.601797 -86.843098 
L 252.913084 -86.771519 
L 252.224372 -86.699955 
L 251.535659 -86.62832 
L 250.846946 -86.556444 
L 250.158233 -86.484329 
L 249.469521 -86.411978 
L 248.780808 -86.339392 
L 248.092095 -86.266575 
L 247.403383 -86.193529 
L 246.71467 -86.120258 
L 246.025957 -86.046764 
L 245.337245 -85.973051 
L 244.648532 -85.899123 
L 243.959819 -85.824984 
L 243.271106 -85.750637 
L 242.582394 -85.676087 
L 241.893681 -85.601338 
L 241.204968 -85.526395 
L 240.516256 -85.451263 
L 239.827543 -85.375947 
L 239.13883 -85.298789 
L 238.450118 -85.209729 
L 237.761405 -85.124439 
L 237.072692 -85.042578 
L 236.383979 -84.964631 
L 235.695267 -84.889565 
L 235.006554 -84.817044 
L 234.317841 -84.74684 
L 233.629129 -84.678745 
L 232.940416 -84.61257 
L 232.251703 -84.548144 
L 231.562991 -84.485315 
L 230.874278 -84.423943 
L 230.185565 -84.363905 
L 229.496852 -84.305088 
L 228.80814 -84.247394 
L 228.119427 -84.190734 
L 227.430714 -84.13503 
L 226.742002 -84.080167 
L 226.053289 -84.026124 
L 225.364576 -83.972855 
L 224.675864 -83.920312 
L 223.987151 -83.868459 
L 223.298438 -83.817262 
L 222.609725 -83.766693 
L 221.921013 -83.716732 
L 221.2323 -83.667016 
L 220.543587 -83.617796 
L 219.854875 -83.569151 
L 219.166162 -83.521076 
L 218.477449 -83.47357 
L 217.788737 -83.426633 
L 217.100024 -83.380272 
L 216.411311 -83.334493 
L 215.722598 -83.289264 
L 215.033886 -83.244562 
L 214.345173 -83.200481 
L 213.65646 -83.157039 
L 212.967748 -83.114256 
L 212.279035 -83.072152 
L 211.590322 -83.030753 
L 210.90161 -82.990083 
L 210.212897 -82.950169 
L 209.524184 -82.91104 
L 208.835471 -82.872728 
L 208.146759 -82.835264 
L 207.458046 -82.798683 
L 206.769333 -82.763019 
L 206.080621 -82.728312 
L 205.391908 -82.694599 
L 204.703195 -82.661921 
L 204.014483 -82.630322 
L 203.32577 -82.587317 
L 202.637057 -82.54262 
L 201.948344 -82.512518 
L 201.259632 -82.494472 
L 200.570919 -82.486455 
L 199.882206 -82.486856 
L 199.193494 -82.494395 
L 198.504781 -82.508066 
L 197.816068 -82.523576 
L 197.127356 -82.530759 
L 196.438643 -82.537383 
L 195.74993 -82.558133 
L 195.061217 -82.591651 
L 194.372505 -82.636661 
L 193.683792 -82.692092 
L 192.995079 -82.755853 
L 192.306367 -82.826834 
L 191.617654 -82.906322 
L 190.928941 -82.993787 
L 190.240229 -83.088613 
L 189.551516 -83.190668 
L 188.862803 -83.299677 
L 188.17409 -83.415428 
L 187.485378 -83.534914 
L 186.796665 -83.633642 
L 186.107952 -83.768599 
L 185.41924 -83.932175 
L 184.730527 -84.120278 
L 184.041814 -84.329486 
L 183.353102 -84.555016 
L 182.664389 -84.788162 
L 181.975676 -85.037552 
L 181.286963 -85.301318 
L 180.598251 -85.580274 
L 179.909538 -85.884274 
L 179.220825 -86.19264 
L 178.532113 -86.500938 
L 177.8434 -86.816176 
L 177.154687 -87.13993 
L 176.465975 -87.472928 
L 175.777262 -87.815731 
L 175.088549 -88.16876 
L 174.399836 -88.535288 
L 173.711124 -88.893611 
L 173.022411 -89.279665 
L 172.333698 -89.690218 
L 171.644986 -90.123021 
L 170.956273 -90.576564 
L 170.26756 -91.049887 
L 169.578848 -91.542446 
L 168.890135 -92.054334 
L 168.201422 -92.585392 
L 167.512709 -93.135694 
L 166.823997 -93.705584 
L 166.135284 -94.295623 
L 165.446571 -94.904962 
L 164.757859 -95.534725 
L 164.069146 -96.187019 
L 163.380433 -96.862496 
L 162.691721 -97.562681 
L 162.003008 -98.279971 
L 161.314295 -99.015893 
L 160.625582 -99.773008 
L 159.93687 -100.563022 
L 159.248157 -101.404068 
L 158.559444 -102.291774 
L 157.870732 -103.22448 
L 157.182019 -104.201183 
L 156.493306 -105.294189 
L 155.804594 -106.26425 
L 155.115881 -107.102925 
L 154.427168 -107.900878 
L 153.738455 -108.690623 
L 153.049743 -109.489549 
L 152.36103 -110.310984 
L 151.672317 -111.157724 
L 150.983605 -112.035055 
L 150.294892 -112.949565 
L 149.606179 -113.89321 
L 148.917467 -114.86265 
L 148.228754 -115.86157 
L 147.540041 -116.894252 
L 146.851328 -117.952395 
L 146.162616 -119.041167 
L 145.473903 -120.189718 
L 144.78519 -121.303233 
L 144.096478 -122.390813 
L 143.407765 -123.483207 
L 142.719052 -124.602228 
L 142.03034 -125.750723 
L 141.341627 -126.929533 
L 140.652914 -128.144571 
L 139.964201 -129.39203 
L 139.275489 -130.663942 
L 138.586776 -131.964683 
L 137.898063 -133.309923 
L 137.209351 -134.647947 
L 136.520638 -135.996582 
L 135.831925 -137.357123 
L 135.143212 -138.739145 
L 134.4545 -140.144436 
L 133.765787 -141.591094 
L 133.077074 -143.101273 
L 132.388362 -144.676715 
L 131.699649 -146.243503 
L 131.010936 -147.805757 
L 130.322224 -149.393345 
L 129.633511 -150.984899 
L 128.944798 -152.545242 
L 128.256085 -154.094712 
L 127.567373 -155.687539 
L 126.87866 -157.222143 
L 126.189947 -158.745221 
L 125.501235 -160.275977 
L 124.812522 -161.831408 
L 124.123809 -163.424444 
L 123.435097 -165.077302 
L 122.746384 -166.718351 
L 122.057671 -168.334286 
L 121.368958 -169.956553 
L 120.680246 -171.623606 
L 119.991533 -173.265017 
L 119.30282 -174.903315 
L 118.614108 -176.543785 
L 117.925395 -178.195177 
L 117.236682 -179.86233 
L 116.54797 -181.573233 
L 115.859257 -183.320766 
L 115.170544 -184.951699 
L 114.481831 -186.514991 
L 113.793119 -188.070992 
L 113.104406 -189.626175 
L 112.415693 -191.191276 
L 111.726981 -192.777606 
L 111.038268 -194.39469 
L 110.349555 -196.025885 
L 109.660843 -197.668966 
L 108.97213 -199.330812 
L 108.283417 -201.019613 
L 107.594704 -202.729949 
L 106.905992 -204.476929 
L 106.217279 -206.260463 
L 105.528566 -208.022945 
L 104.839854 -209.781878 
L 104.151141 -211.563845 
L 103.462428 -213.377146 
L 102.773716 -215.224014 
L 102.085003 -217.092459 
L 101.39629 -218.978956 
L 100.707577 -220.877434 
L 100.018865 -222.783662 
L 99.330152 -224.702082 
L 98.641439 -226.677544 
L 97.952727 -228.238707 
L 97.264014 -229.603681 
L 96.575301 -230.9129 
L 95.886589 -232.152366 
L 95.197876 -233.348866 
L 94.509163 -234.449366 
L 93.82045 -235.451551 
L 93.131738 -236.434652 
L 92.443025 -237.4632 
L 91.754312 -238.437291 
L 91.0656 -239.375631 
L 90.376887 -240.26163 
L 89.688174 -241.056608 
L 88.999462 -241.912399 
L 88.310749 -242.799902 
L 87.622036 -243.667559 
L 86.933323 -244.558467 
L 86.244611 -245.486507 
L 85.555898 -246.442336 
L 84.867185 -247.417387 
L 84.178473 -248.421537 
L 83.48976 -249.419636 
L 82.801047 -250.371356 
L 82.112335 -251.346552 
L 81.423622 -252.406649 
L 80.734909 -253.479087 
L 80.046196 -254.471131 
L 79.357484 -255.36649 
L 78.668771 -256.327681 
L 77.980058 -257.386312 
L 77.291346 -258.508099 
L 76.602633 -259.633348 
L 75.91392 -260.733534 
L 75.225208 -261.464396 
L 74.536495 -262.128086 
L 73.847782 -262.905255 
L 73.159069 -263.660363 
L 72.470357 -264.407334 
L 71.781644 -265.07438 
L 71.092931 -265.710757 
L 70.404219 -266.065644 
L 69.715506 -266.090909 
L 69.026793 -265.966886 
L 68.338081 -265.834893 
L 67.649368 -265.774704 
z
" id="m6f1ec0166a" style="stroke:#0000ff;stroke-opacity:0.03;"/>
    </defs>
    <g clip-path="url(#p8d6ef44ddc)">
     <use style="fill:#0000ff;fill-opacity:0.03;stroke:#0000ff;stroke-opacity:0.03;" x="0" xlink:href="#m6f1ec0166a" y="288"/>
    </g>
   </g>
   <g id="PolyCollection_2">
    <defs>
     <path d="M 67.649368 -70.153642 
L 67.649368 -43.909091 
L 68.338081 -43.909091 
L 69.026793 -43.909091 
L 69.715506 -43.909091 
L 70.404219 -43.909091 
L 71.092931 -43.909091 
L 71.781644 -43.909091 
L 72.470357 -43.909091 
L 73.159069 -43.909091 
L 73.847782 -43.909091 
L 74.536495 -43.909091 
L 75.225208 -43.909091 
L 75.91392 -43.909091 
L 76.602633 -43.909091 
L 77.291346 -43.909091 
L 77.980058 -43.909091 
L 78.668771 -43.909091 
L 79.357484 -43.909091 
L 80.046196 -43.909091 
L 80.734909 -43.909091 
L 81.423622 -43.909091 
L 82.112335 -43.909091 
L 82.801047 -43.909091 
L 83.48976 -43.909091 
L 84.178473 -43.909091 
L 84.867185 -43.909091 
L 85.555898 -43.909091 
L 86.244611 -43.909091 
L 86.933323 -43.909091 
L 87.622036 -43.909091 
L 88.310749 -43.909091 
L 88.999462 -43.909091 
L 89.688174 -43.909091 
L 90.376887 -43.909091 
L 91.0656 -43.909091 
L 91.754312 -43.909091 
L 92.443025 -43.909091 
L 93.131738 -43.909091 
L 93.82045 -43.909091 
L 94.509163 -43.909091 
L 95.197876 -43.909091 
L 95.886589 -43.909091 
L 96.575301 -43.909091 
L 97.264014 -43.909091 
L 97.952727 -43.909091 
L 98.641439 -43.909091 
L 99.330152 -43.909091 
L 100.018865 -43.909091 
L 100.707577 -43.909091 
L 101.39629 -43.909091 
L 102.085003 -43.909091 
L 102.773716 -43.909091 
L 103.462428 -43.909091 
L 104.151141 -43.909091 
L 104.839854 -43.909091 
L 105.528566 -43.909091 
L 106.217279 -43.909091 
L 106.905992 -43.909091 
L 107.594704 -43.909091 
L 108.283417 -43.909091 
L 108.97213 -43.909091 
L 109.660843 -43.909091 
L 110.349555 -43.909091 
L 111.038268 -43.909091 
L 111.726981 -43.909091 
L 112.415693 -43.909091 
L 113.104406 -43.909091 
L 113.793119 -43.909091 
L 114.481831 -43.909091 
L 115.170544 -43.909091 
L 115.859257 -43.909091 
L 116.54797 -43.909091 
L 117.236682 -43.909091 
L 117.925395 -43.909091 
L 118.614108 -43.909091 
L 119.30282 -43.909091 
L 119.991533 -43.909091 
L 120.680246 -43.909091 
L 121.368958 -43.909091 
L 122.057671 -43.909091 
L 122.746384 -43.909091 
L 123.435097 -43.909091 
L 124.123809 -43.909091 
L 124.812522 -43.909091 
L 125.501235 -43.909091 
L 126.189947 -43.909091 
L 126.87866 -43.909091 
L 127.567373 -43.909091 
L 128.256085 -43.909091 
L 128.944798 -43.909091 
L 129.633511 -43.909091 
L 130.322224 -43.909091 
L 131.010936 -43.909091 
L 131.699649 -43.909091 
L 132.388362 -43.909091 
L 133.077074 -43.909091 
L 133.765787 -43.909091 
L 134.4545 -43.909091 
L 135.143212 -43.909091 
L 135.831925 -43.909091 
L 136.520638 -43.909091 
L 137.209351 -43.909091 
L 137.898063 -43.909091 
L 138.586776 -43.909091 
L 139.275489 -43.909091 
L 139.964201 -43.909091 
L 140.652914 -43.909091 
L 141.341627 -43.909091 
L 142.03034 -43.909091 
L 142.719052 -43.909091 
L 143.407765 -43.909091 
L 144.096478 -43.909091 
L 144.78519 -43.909091 
L 145.473903 -43.909091 
L 146.162616 -43.909091 
L 146.851328 -43.909091 
L 147.540041 -43.909091 
L 148.228754 -43.909091 
L 148.917467 -43.909091 
L 149.606179 -43.909091 
L 150.294892 -43.909091 
L 150.983605 -43.909091 
L 151.672317 -43.909091 
L 152.36103 -43.909091 
L 153.049743 -43.909091 
L 153.738455 -43.909091 
L 154.427168 -43.909091 
L 155.115881 -43.909091 
L 155.804594 -43.909091 
L 156.493306 -43.909091 
L 157.182019 -43.909091 
L 157.870732 -43.909091 
L 158.559444 -43.909091 
L 159.248157 -43.909091 
L 159.93687 -43.909091 
L 160.625582 -43.909091 
L 161.314295 -43.909091 
L 162.003008 -43.909091 
L 162.691721 -43.909091 
L 163.380433 -43.909091 
L 164.069146 -43.909091 
L 164.757859 -43.909091 
L 165.446571 -43.909091 
L 166.135284 -43.909091 
L 166.823997 -43.909091 
L 167.512709 -43.909091 
L 168.201422 -43.909091 
L 168.890135 -43.909091 
L 169.578848 -43.909091 
L 170.26756 -43.909091 
L 170.956273 -43.909091 
L 171.644986 -43.909091 
L 172.333698 -43.909091 
L 173.022411 -43.909091 
L 173.711124 -43.909091 
L 174.399836 -43.909091 
L 175.088549 -43.909091 
L 175.777262 -43.909091 
L 176.465975 -43.909091 
L 177.154687 -43.909091 
L 177.8434 -43.909091 
L 178.532113 -43.909091 
L 179.220825 -43.909091 
L 179.909538 -43.909091 
L 180.598251 -43.909091 
L 181.286963 -43.909091 
L 181.975676 -43.909091 
L 182.664389 -43.909091 
L 183.353102 -43.909091 
L 184.041814 -43.909091 
L 184.730527 -43.909091 
L 185.41924 -43.909091 
L 186.107952 -43.909091 
L 186.796665 -43.909091 
L 187.485378 -43.909091 
L 188.17409 -43.909091 
L 188.862803 -43.909091 
L 189.551516 -43.909091 
L 190.240229 -43.909091 
L 190.928941 -43.909091 
L 191.617654 -43.909091 
L 192.306367 -43.909091 
L 192.995079 -43.909091 
L 193.683792 -43.909091 
L 194.372505 -43.909091 
L 195.061217 -43.909091 
L 195.74993 -43.909091 
L 196.438643 -43.909091 
L 197.127356 -43.909091 
L 197.816068 -43.909091 
L 198.504781 -43.909091 
L 199.193494 -43.909091 
L 199.882206 -43.909091 
L 200.570919 -43.909091 
L 201.259632 -43.909091 
L 201.948344 -43.909091 
L 202.637057 -43.909091 
L 203.32577 -43.909091 
L 204.014483 -43.909091 
L 204.703195 -43.909091 
L 205.391908 -43.909091 
L 206.080621 -43.909091 
L 206.769333 -43.909091 
L 207.458046 -43.909091 
L 208.146759 -43.909091 
L 208.835471 -43.909091 
L 209.524184 -43.909091 
L 210.212897 -43.909091 
L 210.90161 -43.909091 
L 211.590322 -43.909091 
L 212.279035 -43.909091 
L 212.967748 -43.909091 
L 213.65646 -43.909091 
L 214.345173 -43.909091 
L 215.033886 -43.909091 
L 215.722598 -43.909091 
L 216.411311 -43.909091 
L 217.100024 -43.909091 
L 217.788737 -43.909091 
L 218.477449 -43.909091 
L 219.166162 -43.909091 
L 219.854875 -43.909091 
L 220.543587 -43.909091 
L 221.2323 -43.909091 
L 221.921013 -43.909091 
L 222.609725 -43.909091 
L 223.298438 -43.909091 
L 223.987151 -43.909091 
L 224.675864 -43.909091 
L 225.364576 -43.909091 
L 226.053289 -43.909091 
L 226.742002 -43.909091 
L 227.430714 -43.909091 
L 228.119427 -43.909091 
L 228.80814 -43.909091 
L 229.496852 -43.909091 
L 230.185565 -43.909091 
L 230.874278 -43.909091 
L 231.562991 -43.909091 
L 232.251703 -43.909091 
L 232.940416 -43.909091 
L 233.629129 -43.909091 
L 234.317841 -43.909091 
L 235.006554 -43.909091 
L 235.695267 -43.909091 
L 236.383979 -43.909091 
L 237.072692 -43.909091 
L 237.761405 -43.909091 
L 238.450118 -43.909091 
L 239.13883 -43.909091 
L 239.827543 -43.909091 
L 240.516256 -43.909091 
L 241.204968 -43.909091 
L 241.893681 -43.909091 
L 242.582394 -43.909091 
L 243.271106 -43.909091 
L 243.959819 -43.909091 
L 244.648532 -43.909091 
L 245.337245 -43.909091 
L 246.025957 -43.909091 
L 246.71467 -43.909091 
L 247.403383 -43.909091 
L 248.092095 -43.909091 
L 248.780808 -43.909091 
L 249.469521 -43.909091 
L 250.158233 -43.909091 
L 250.846946 -43.909091 
L 251.535659 -43.909091 
L 252.224372 -43.909091 
L 252.913084 -43.909091 
L 253.601797 -43.909091 
L 254.29051 -43.909091 
L 254.979222 -43.909091 
L 255.667935 -43.909091 
L 256.356648 -43.909091 
L 257.04536 -43.909091 
L 257.734073 -43.909091 
L 258.422786 -43.909091 
L 259.111499 -43.909091 
L 259.800211 -43.909091 
L 260.488924 -43.909091 
L 261.177637 -43.909091 
L 261.866349 -43.909091 
L 262.555062 -43.909091 
L 263.243775 -43.909091 
L 263.932487 -43.909091 
L 264.6212 -43.909091 
L 265.309913 -43.909091 
L 265.998626 -43.909091 
L 266.687338 -43.909091 
L 267.376051 -43.909091 
L 268.064764 -43.909091 
L 268.753476 -43.909091 
L 269.442189 -43.909091 
L 270.130902 -43.909091 
L 270.819615 -43.909091 
L 271.508327 -43.909091 
L 272.19704 -43.909091 
L 272.885753 -43.909091 
L 273.574465 -43.909091 
L 274.263178 -43.909091 
L 274.951891 -43.909091 
L 275.640603 -43.909091 
L 276.329316 -43.909091 
L 277.018029 -43.909091 
L 277.706742 -43.909091 
L 278.395454 -43.909091 
L 279.084167 -43.909091 
L 279.77288 -43.909091 
L 280.461592 -43.909091 
L 281.150305 -43.909091 
L 281.839018 -43.909091 
L 282.52773 -43.909091 
L 283.216443 -43.909091 
L 283.905156 -43.909091 
L 284.593869 -43.909091 
L 285.282581 -43.909091 
L 285.971294 -43.909091 
L 286.660007 -43.909091 
L 287.348719 -43.909091 
L 288.037432 -43.909091 
L 288.726145 -43.909091 
L 289.414857 -43.909091 
L 290.10357 -43.909091 
L 290.792283 -43.909091 
L 291.480996 -43.909091 
L 292.169708 -43.909091 
L 292.858421 -43.909091 
L 293.547134 -43.909091 
L 294.235846 -43.909091 
L 294.924559 -43.909091 
L 295.613272 -43.909091 
L 296.301984 -43.909091 
L 296.990697 -43.909091 
L 297.67941 -43.909091 
L 298.368123 -43.909091 
L 299.056835 -43.909091 
L 299.745548 -43.909091 
L 300.434261 -43.909091 
L 301.122973 -43.909091 
L 301.811686 -43.909091 
L 302.500399 -43.909091 
L 303.189111 -43.909091 
L 303.877824 -43.909091 
L 304.566537 -43.909091 
L 305.25525 -43.909091 
L 305.943962 -43.909091 
L 306.632675 -43.909091 
L 307.321388 -43.909091 
L 308.0101 -43.909091 
L 308.698813 -43.909091 
L 309.387526 -43.909091 
L 310.076238 -43.909091 
L 310.764951 -43.909091 
L 311.453664 -43.909091 
L 312.142377 -43.909091 
L 312.831089 -43.909091 
L 313.519802 -43.909091 
L 314.208515 -43.909091 
L 314.897227 -43.909091 
L 315.58594 -43.909091 
L 316.274653 -43.909091 
L 316.963365 -43.909091 
L 317.652078 -43.909091 
L 318.340791 -43.909091 
L 319.029504 -43.909091 
L 319.718216 -43.909091 
L 320.406929 -43.909091 
L 321.095642 -43.909091 
L 321.784354 -43.909091 
L 322.473067 -43.909091 
L 323.16178 -43.909091 
L 323.850492 -43.909091 
L 324.539205 -43.909091 
L 325.227918 -43.909091 
L 325.916631 -43.909091 
L 326.605343 -43.909091 
L 327.294056 -43.909091 
L 327.982769 -43.909091 
L 328.671481 -43.909091 
L 329.360194 -43.909091 
L 330.048907 -43.909091 
L 330.737619 -43.909091 
L 331.426332 -43.909091 
L 332.115045 -43.909091 
L 332.803758 -43.909091 
L 333.49247 -43.909091 
L 334.181183 -43.909091 
L 334.869896 -43.909091 
L 335.558608 -43.909091 
L 336.247321 -43.909091 
L 336.936034 -43.909091 
L 337.624746 -43.909091 
L 338.313459 -43.909091 
L 339.002172 -43.909091 
L 339.690885 -43.909091 
L 340.379597 -43.909091 
L 341.06831 -43.909091 
L 341.757023 -43.909091 
L 342.445735 -43.909091 
L 343.134448 -43.909091 
L 343.823161 -43.909091 
L 344.511873 -43.909091 
L 345.200586 -43.909091 
L 345.889299 -43.909091 
L 346.578012 -43.909091 
L 347.266724 -43.909091 
L 347.955437 -43.909091 
L 348.64415 -43.909091 
L 349.332862 -43.909091 
L 350.021575 -43.909091 
L 350.710288 -43.909091 
L 351.399 -43.909091 
L 352.087713 -43.909091 
L 352.776426 -43.909091 
L 353.465139 -43.909091 
L 354.153851 -43.909091 
L 354.842564 -43.909091 
L 355.531277 -43.909091 
L 356.219989 -43.909091 
L 356.908702 -43.909091 
L 357.597415 -43.909091 
L 358.286127 -43.909091 
L 358.97484 -43.909091 
L 359.663553 -43.909091 
L 360.352266 -43.909091 
L 361.040978 -43.909091 
L 361.729691 -43.909091 
L 362.418404 -43.909091 
L 363.107116 -43.909091 
L 363.795829 -43.909091 
L 364.484542 -43.909091 
L 365.173254 -43.909091 
L 365.861967 -43.909091 
L 366.55068 -43.909091 
L 367.239393 -43.909091 
L 367.928105 -43.909091 
L 368.616818 -43.909091 
L 369.305531 -43.909091 
L 369.994243 -43.909091 
L 370.682956 -43.909091 
L 371.371669 -43.909091 
L 372.060381 -43.909091 
L 372.749094 -43.909091 
L 373.437807 -43.909091 
L 374.12652 -43.909091 
L 374.815232 -43.909091 
L 375.503945 -43.909091 
L 376.192658 -43.909091 
L 376.88137 -43.909091 
L 377.570083 -43.909091 
L 378.258796 -43.909091 
L 378.947508 -43.909091 
L 379.636221 -43.909091 
L 380.324934 -43.909091 
L 381.013647 -43.909091 
L 381.702359 -43.909091 
L 382.391072 -43.909091 
L 383.079785 -43.909091 
L 383.768497 -43.909091 
L 384.45721 -43.909091 
L 385.145923 -43.909091 
L 385.834635 -43.909091 
L 386.523348 -43.909091 
L 387.212061 -43.909091 
L 387.900774 -43.909091 
L 388.589486 -43.909091 
L 389.278199 -43.909091 
L 389.966912 -43.909091 
L 390.655624 -43.909091 
L 391.344337 -43.909091 
L 392.03305 -43.909091 
L 392.721762 -43.909091 
L 393.410475 -43.909091 
L 394.099188 -43.909091 
L 394.787901 -43.909091 
L 395.476613 -43.909091 
L 396.165326 -43.909091 
L 396.854039 -43.909091 
L 397.542751 -43.909091 
L 399.636725 -43.909091 
L 399.636725 -111.571482 
L 399.636725 -111.571482 
L 397.542751 -111.620231 
L 396.854039 -111.636807 
L 396.165326 -111.653653 
L 395.476613 -111.67077 
L 394.787901 -111.688158 
L 394.099188 -111.705819 
L 393.410475 -111.723752 
L 392.721762 -111.741959 
L 392.03305 -111.76044 
L 391.344337 -111.779197 
L 390.655624 -111.798229 
L 389.966912 -111.817539 
L 389.278199 -111.837126 
L 388.589486 -111.856992 
L 387.900774 -111.877137 
L 387.212061 -111.897562 
L 386.523348 -111.91827 
L 385.834635 -111.939259 
L 385.145923 -111.960531 
L 384.45721 -111.982088 
L 383.768497 -112.00393 
L 383.079785 -112.026058 
L 382.391072 -112.048473 
L 381.702359 -112.071134 
L 381.013647 -112.094056 
L 380.324934 -112.117274 
L 379.636221 -112.140782 
L 378.947508 -112.164583 
L 378.258796 -112.188676 
L 377.570083 -112.213063 
L 376.88137 -112.237746 
L 376.192658 -112.262725 
L 375.503945 -112.288002 
L 374.815232 -112.313578 
L 374.12652 -112.339454 
L 373.437807 -112.365631 
L 372.749094 -112.392111 
L 372.060381 -112.418895 
L 371.371669 -112.445985 
L 370.682956 -112.473381 
L 369.994243 -112.501086 
L 369.305531 -112.529101 
L 368.616818 -112.557426 
L 367.928105 -112.586065 
L 367.239393 -112.615017 
L 366.55068 -112.644285 
L 365.861967 -112.67387 
L 365.173254 -112.70383 
L 364.484542 -112.734441 
L 363.795829 -112.765233 
L 363.107116 -112.796288 
L 362.418404 -112.827671 
L 361.729691 -112.859385 
L 361.040978 -112.891432 
L 360.352266 -112.923813 
L 359.663553 -112.95653 
L 358.97484 -112.989585 
L 358.286127 -113.022981 
L 357.597415 -113.056719 
L 356.908702 -113.090802 
L 356.219989 -113.125231 
L 355.531277 -113.160009 
L 354.842564 -113.195138 
L 354.153851 -113.23062 
L 353.465139 -113.266457 
L 352.776426 -113.302652 
L 352.087713 -113.339207 
L 351.399 -113.376125 
L 350.710288 -113.413407 
L 350.021575 -113.451057 
L 349.332862 -113.489076 
L 348.64415 -113.527468 
L 347.955437 -113.566234 
L 347.266724 -113.605378 
L 346.578012 -113.644902 
L 345.889299 -113.684809 
L 345.200586 -113.725101 
L 344.511873 -113.76631 
L 343.823161 -113.808218 
L 343.134448 -113.850546 
L 342.445735 -113.893298 
L 341.757023 -113.936479 
L 341.06831 -113.980091 
L 340.379597 -114.024138 
L 339.690885 -114.068625 
L 339.002172 -114.113554 
L 338.313459 -114.158931 
L 337.624746 -114.204759 
L 336.936034 -114.251042 
L 336.247321 -114.297785 
L 335.558608 -114.344991 
L 334.869896 -114.392665 
L 334.181183 -114.440812 
L 333.49247 -114.489435 
L 332.803758 -114.53854 
L 332.115045 -114.588131 
L 331.426332 -114.638028 
L 330.737619 -114.688417 
L 330.048907 -114.739304 
L 329.360194 -114.790692 
L 328.671481 -114.842588 
L 327.982769 -114.894995 
L 327.294056 -114.94792 
L 326.605343 -115.001367 
L 325.916631 -115.055342 
L 325.227918 -115.10985 
L 324.539205 -115.164897 
L 323.850492 -115.220488 
L 323.16178 -115.276629 
L 322.473067 -115.333326 
L 321.784354 -115.390584 
L 321.095642 -115.44841 
L 320.406929 -115.506809 
L 319.718216 -115.565788 
L 319.029504 -115.625353 
L 318.340791 -115.68551 
L 317.652078 -115.746266 
L 316.963365 -115.807627 
L 316.274653 -115.869599 
L 315.58594 -115.932191 
L 314.897227 -115.995408 
L 314.208515 -116.058921 
L 313.519802 -116.122978 
L 312.831089 -116.187676 
L 312.142377 -116.253022 
L 311.453664 -116.319024 
L 310.764951 -116.385688 
L 310.076238 -116.453023 
L 309.387526 -116.521036 
L 308.698813 -116.589735 
L 308.0101 -116.659128 
L 307.321388 -116.729223 
L 306.632675 -116.800027 
L 305.943962 -116.87155 
L 305.25525 -116.9438 
L 304.566537 -117.016785 
L 303.877824 -117.090514 
L 303.189111 -117.164995 
L 302.500399 -117.240238 
L 301.811686 -117.316252 
L 301.122973 -117.393045 
L 300.434261 -117.470628 
L 299.745548 -117.549008 
L 299.056835 -117.628197 
L 298.368123 -117.708204 
L 297.67941 -117.789038 
L 296.990697 -117.870709 
L 296.301984 -117.953228 
L 295.613272 -118.036605 
L 294.924559 -118.121043 
L 294.235846 -118.213541 
L 293.547134 -118.304863 
L 292.858421 -118.395185 
L 292.169708 -118.484671 
L 291.480996 -118.573472 
L 290.792283 -118.661729 
L 290.10357 -118.747119 
L 289.414857 -118.829862 
L 288.726145 -118.912855 
L 288.037432 -118.996198 
L 287.348719 -119.079979 
L 286.660007 -119.16428 
L 285.971294 -119.249177 
L 285.282581 -119.334739 
L 284.593869 -119.421029 
L 283.905156 -119.508106 
L 283.216443 -119.596023 
L 282.52773 -119.684829 
L 281.839018 -119.774569 
L 281.150305 -119.865284 
L 280.461592 -119.957011 
L 279.77288 -120.049786 
L 279.084167 -120.15126 
L 278.395454 -120.252183 
L 277.706742 -120.351006 
L 277.018029 -120.448123 
L 276.329316 -120.543615 
L 275.640603 -120.638127 
L 274.951891 -120.732781 
L 274.263178 -120.827069 
L 273.574465 -120.921057 
L 272.885753 -121.014934 
L 272.19704 -121.108862 
L 271.508327 -121.202987 
L 270.819615 -121.297432 
L 270.130902 -121.392307 
L 269.442189 -121.487706 
L 268.753476 -121.58371 
L 268.064764 -121.680051 
L 267.376051 -121.776823 
L 266.687338 -121.874376 
L 265.998626 -121.972752 
L 265.309913 -122.07199 
L 264.6212 -122.172121 
L 263.932487 -122.27316 
L 263.243775 -122.375085 
L 262.555062 -122.47797 
L 261.866349 -122.581832 
L 261.177637 -122.68668 
L 260.488924 -122.792525 
L 259.800211 -122.899372 
L 259.111499 -123.007224 
L 258.422786 -123.116082 
L 257.734073 -123.225946 
L 257.04536 -123.336813 
L 256.356648 -123.448678 
L 255.667935 -123.561533 
L 254.979222 -123.675369 
L 254.29051 -123.790176 
L 253.601797 -123.90594 
L 252.913084 -124.02435 
L 252.224372 -124.147459 
L 251.535659 -124.271779 
L 250.846946 -124.402875 
L 250.158233 -124.537052 
L 249.469521 -124.673482 
L 248.780808 -124.809961 
L 248.092095 -124.946522 
L 247.403383 -125.083349 
L 246.71467 -125.224001 
L 246.025957 -125.365289 
L 245.337245 -125.507268 
L 244.648532 -125.649995 
L 243.959819 -125.793525 
L 243.271106 -125.937912 
L 242.582394 -126.08321 
L 241.893681 -126.229471 
L 241.204968 -126.376749 
L 240.516256 -126.525095 
L 239.827543 -126.674559 
L 239.13883 -126.825192 
L 238.450118 -126.977041 
L 237.761405 -127.130156 
L 237.072692 -127.284582 
L 236.383979 -127.439813 
L 235.695267 -127.596384 
L 235.006554 -127.754394 
L 234.317841 -127.914067 
L 233.629129 -128.075367 
L 232.940416 -128.238222 
L 232.251703 -128.402672 
L 231.562991 -128.568752 
L 230.874278 -128.736495 
L 230.185565 -128.905935 
L 229.496852 -129.077101 
L 228.80814 -129.250021 
L 228.119427 -129.424721 
L 227.430714 -129.601223 
L 226.742002 -129.77954 
L 226.053289 -129.959694 
L 225.364576 -130.1417 
L 224.675864 -130.325566 
L 223.987151 -130.511296 
L 223.298438 -130.698891 
L 222.609725 -130.888346 
L 221.921013 -131.084534 
L 221.2323 -131.292172 
L 220.543587 -131.49689 
L 219.854875 -131.699005 
L 219.166162 -131.899552 
L 218.477449 -132.098625 
L 217.788737 -132.295874 
L 217.100024 -132.49151 
L 216.411311 -132.689723 
L 215.722598 -132.891929 
L 215.033886 -133.094563 
L 214.345173 -133.297851 
L 213.65646 -133.501998 
L 212.967748 -133.707191 
L 212.279035 -133.913595 
L 211.590322 -134.121946 
L 210.90161 -134.333604 
L 210.212897 -134.551576 
L 209.524184 -134.777487 
L 208.835471 -135.016781 
L 208.146759 -135.24612 
L 207.458046 -135.469347 
L 206.769333 -135.688413 
L 206.080621 -135.904246 
L 205.391908 -136.118262 
L 204.703195 -136.331609 
L 204.014483 -136.545215 
L 203.32577 -136.755719 
L 202.637057 -136.966484 
L 201.948344 -137.180564 
L 201.259632 -137.398305 
L 200.570919 -137.619989 
L 199.882206 -137.845844 
L 199.193494 -138.076056 
L 198.504781 -138.321686 
L 197.816068 -138.568437 
L 197.127356 -138.81558 
L 196.438643 -139.063685 
L 195.74993 -139.313218 
L 195.061217 -139.56475 
L 194.372505 -139.818706 
L 193.683792 -140.075467 
L 192.995079 -140.335373 
L 192.306367 -140.59873 
L 191.617654 -140.865812 
L 190.928941 -141.136869 
L 190.240229 -141.412178 
L 189.551516 -141.691886 
L 188.862803 -141.976174 
L 188.17409 -142.265208 
L 187.485378 -142.559138 
L 186.796665 -142.858099 
L 186.107952 -143.162212 
L 185.41924 -143.471587 
L 184.730527 -143.786321 
L 184.041814 -144.106513 
L 183.353102 -144.432237 
L 182.664389 -144.764145 
L 181.975676 -145.10199 
L 181.286963 -145.44549 
L 180.598251 -145.794658 
L 179.909538 -146.149803 
L 179.220825 -146.511054 
L 178.532113 -146.877638 
L 177.8434 -147.249724 
L 177.154687 -147.630637 
L 176.465975 -148.022052 
L 175.777262 -148.410957 
L 175.088549 -148.809028 
L 174.399836 -149.231521 
L 173.711124 -149.654056 
L 173.022411 -150.077542 
L 172.333698 -150.51269 
L 171.644986 -150.956172 
L 170.956273 -151.408808 
L 170.26756 -151.875832 
L 169.578848 -152.348834 
L 168.890135 -152.831026 
L 168.201422 -153.42739 
L 167.512709 -153.825737 
L 166.823997 -154.074335 
L 166.135284 -154.241497 
L 165.446571 -154.36472 
L 164.757859 -154.463628 
L 164.069146 -154.548055 
L 163.380433 -154.628172 
L 162.691721 -154.707188 
L 162.003008 -154.800152 
L 161.314295 -154.892079 
L 160.625582 -154.977499 
L 159.93687 -155.057599 
L 159.248157 -155.133962 
L 158.559444 -155.232998 
L 157.870732 -155.307289 
L 157.182019 -155.351649 
L 156.493306 -155.375583 
L 155.804594 -155.387233 
L 155.115881 -155.391093 
L 154.427168 -155.386847 
L 153.738455 -155.376755 
L 153.049743 -155.365551 
L 152.36103 -155.348437 
L 151.672317 -155.32461 
L 150.983605 -155.326826 
L 150.294892 -155.328864 
L 149.606179 -155.316791 
L 148.917467 -155.307564 
L 148.228754 -155.299471 
L 147.540041 -155.240687 
L 146.851328 -155.137985 
L 146.162616 -155.00797 
L 145.473903 -154.859041 
L 144.78519 -154.695903 
L 144.096478 -154.522333 
L 143.407765 -154.363222 
L 142.719052 -154.126868 
L 142.03034 -153.860988 
L 141.341627 -153.556839 
L 140.652914 -153.209869 
L 139.964201 -152.885562 
L 139.275489 -152.545403 
L 138.586776 -152.188096 
L 137.898063 -151.818877 
L 137.209351 -151.456839 
L 136.520638 -151.065118 
L 135.831925 -150.63988 
L 135.143212 -150.19435 
L 134.4545 -149.736932 
L 133.765787 -149.272466 
L 133.077074 -148.803394 
L 132.388362 -148.329719 
L 131.699649 -147.85095 
L 131.010936 -147.374778 
L 130.322224 -146.89383 
L 129.633511 -146.420645 
L 128.944798 -145.925503 
L 128.256085 -145.38538 
L 127.567373 -144.812353 
L 126.87866 -144.239888 
L 126.189947 -143.656572 
L 125.501235 -143.052541 
L 124.812522 -142.421537 
L 124.123809 -141.76042 
L 123.435097 -141.108246 
L 122.746384 -140.475288 
L 122.057671 -139.840879 
L 121.368958 -139.201416 
L 120.680246 -138.552206 
L 119.991533 -137.885382 
L 119.30282 -137.179786 
L 118.614108 -136.348717 
L 117.925395 -135.363211 
L 117.236682 -134.403898 
L 116.54797 -133.439616 
L 115.859257 -132.453612 
L 115.170544 -131.421265 
L 114.481831 -130.336058 
L 113.793119 -129.274521 
L 113.104406 -128.244502 
L 112.415693 -127.181704 
L 111.726981 -126.098622 
L 111.038268 -125.008706 
L 110.349555 -123.92637 
L 109.660843 -122.846995 
L 108.97213 -121.777764 
L 108.283417 -120.731593 
L 107.594704 -119.696013 
L 106.905992 -118.666883 
L 106.217279 -117.629979 
L 105.528566 -116.605265 
L 104.839854 -115.596112 
L 104.151141 -114.604753 
L 103.462428 -113.60944 
L 102.773716 -112.654468 
L 102.085003 -111.720047 
L 101.39629 -110.801987 
L 100.707577 -109.893771 
L 100.018865 -108.987597 
L 99.330152 -108.068344 
L 98.641439 -107.092287 
L 97.952727 -106.10776 
L 97.264014 -105.134686 
L 96.575301 -104.126066 
L 95.886589 -103.118143 
L 95.197876 -102.127587 
L 94.509163 -101.125699 
L 93.82045 -100.14936 
L 93.131738 -99.177199 
L 92.443025 -98.220248 
L 91.754312 -97.232756 
L 91.0656 -96.245789 
L 90.376887 -95.263431 
L 89.688174 -94.315228 
L 88.999462 -93.394686 
L 88.310749 -92.51357 
L 87.622036 -91.667828 
L 86.933323 -90.858293 
L 86.244611 -90.08499 
L 85.555898 -89.291293 
L 84.867185 -88.453803 
L 84.178473 -87.635512 
L 83.48976 -86.82429 
L 82.801047 -86.019192 
L 82.112335 -85.162682 
L 81.423622 -84.29773 
L 80.734909 -83.444737 
L 80.046196 -82.6154 
L 79.357484 -81.842518 
L 78.668771 -81.102601 
L 77.980058 -80.352135 
L 77.291346 -79.538443 
L 76.602633 -78.748732 
L 75.91392 -77.915833 
L 75.225208 -77.084535 
L 74.536495 -76.247864 
L 73.847782 -75.446623 
L 73.159069 -74.671034 
L 72.470357 -73.955092 
L 71.781644 -73.277733 
L 71.092931 -72.651244 
L 70.404219 -72.070502 
L 69.715506 -71.531196 
L 69.026793 -71.034612 
L 68.338081 -70.576395 
L 67.649368 -70.153642 
z
" id="mfad37e84eb" style="stroke:#ff0000;stroke-opacity:0.03;"/>
    </defs>
    <g clip-path="url(#p8d6ef44ddc)">
     <use style="fill:#ff0000;fill-opacity:0.03;stroke:#ff0000;stroke-opacity:0.03;" x="0" xlink:href="#mfad37e84eb" y="288"/>
    </g>
   </g>
   <g id="PolyCollection_3">
    <defs>
     <path d="M 67.649368 -131.511319 
L 67.649368 -43.909091 
L 68.338081 -43.909091 
L 69.026793 -43.909091 
L 69.715506 -43.909091 
L 70.404219 -43.909091 
L 71.092931 -43.909091 
L 71.781644 -43.909091 
L 72.470357 -43.909091 
L 73.159069 -43.909091 
L 73.847782 -43.909091 
L 74.536495 -43.909091 
L 75.225208 -43.909091 
L 75.91392 -43.909091 
L 76.602633 -43.909091 
L 77.291346 -43.909091 
L 77.980058 -43.909091 
L 78.668771 -43.909091 
L 79.357484 -43.909091 
L 80.046196 -43.909091 
L 80.734909 -43.909091 
L 81.423622 -43.909091 
L 82.112335 -43.909091 
L 82.801047 -43.909091 
L 83.48976 -43.909091 
L 84.178473 -43.909091 
L 84.867185 -43.909091 
L 85.555898 -43.909091 
L 86.244611 -43.909091 
L 86.933323 -43.909091 
L 87.622036 -43.909091 
L 88.310749 -43.909091 
L 88.999462 -43.909091 
L 89.688174 -43.909091 
L 90.376887 -43.909091 
L 91.0656 -43.909091 
L 91.754312 -43.909091 
L 92.443025 -43.909091 
L 93.131738 -43.909091 
L 93.82045 -43.909091 
L 94.509163 -43.909091 
L 95.197876 -43.909091 
L 95.886589 -43.909091 
L 96.575301 -43.909091 
L 97.264014 -43.909091 
L 97.952727 -43.909091 
L 98.641439 -43.909091 
L 99.330152 -43.909091 
L 100.018865 -43.909091 
L 100.707577 -43.909091 
L 101.39629 -43.909091 
L 102.085003 -43.909091 
L 102.773716 -43.909091 
L 103.462428 -43.909091 
L 104.151141 -43.909091 
L 104.839854 -43.909091 
L 105.528566 -43.909091 
L 106.217279 -43.909091 
L 106.905992 -43.909091 
L 107.594704 -43.909091 
L 108.283417 -43.909091 
L 108.97213 -43.909091 
L 109.660843 -43.909091 
L 110.349555 -43.909091 
L 111.038268 -43.909091 
L 111.726981 -43.909091 
L 112.415693 -43.909091 
L 113.104406 -43.909091 
L 113.793119 -43.909091 
L 114.481831 -43.909091 
L 115.170544 -43.909091 
L 115.859257 -43.909091 
L 116.54797 -43.909091 
L 117.236682 -43.909091 
L 117.925395 -43.909091 
L 118.614108 -43.909091 
L 119.30282 -43.909091 
L 119.991533 -43.909091 
L 120.680246 -43.909091 
L 121.368958 -43.909091 
L 122.057671 -43.909091 
L 122.746384 -43.909091 
L 123.435097 -43.909091 
L 124.123809 -43.909091 
L 124.812522 -43.909091 
L 125.501235 -43.909091 
L 126.189947 -43.909091 
L 126.87866 -43.909091 
L 127.567373 -43.909091 
L 128.256085 -43.909091 
L 128.944798 -43.909091 
L 129.633511 -43.909091 
L 130.322224 -43.909091 
L 131.010936 -43.909091 
L 131.699649 -43.909091 
L 132.388362 -43.909091 
L 133.077074 -43.909091 
L 133.765787 -43.909091 
L 134.4545 -43.909091 
L 135.143212 -43.909091 
L 135.831925 -43.909091 
L 136.520638 -43.909091 
L 137.209351 -43.909091 
L 137.898063 -43.909091 
L 138.586776 -43.909091 
L 139.275489 -43.909091 
L 139.964201 -43.909091 
L 140.652914 -43.909091 
L 141.341627 -43.909091 
L 142.03034 -43.909091 
L 142.719052 -43.909091 
L 143.407765 -43.909091 
L 144.096478 -43.909091 
L 144.78519 -43.909091 
L 145.473903 -43.909091 
L 146.162616 -43.909091 
L 146.851328 -43.909091 
L 147.540041 -43.909091 
L 148.228754 -43.909091 
L 148.917467 -43.909091 
L 149.606179 -43.909091 
L 150.294892 -43.909091 
L 150.983605 -43.909091 
L 151.672317 -43.909091 
L 152.36103 -43.909091 
L 153.049743 -43.909091 
L 153.738455 -43.909091 
L 154.427168 -43.909091 
L 155.115881 -43.909091 
L 155.804594 -43.909091 
L 156.493306 -43.909091 
L 157.182019 -43.909091 
L 157.870732 -43.909091 
L 158.559444 -43.909091 
L 159.248157 -43.909091 
L 159.93687 -43.909091 
L 160.625582 -43.909091 
L 161.314295 -43.909091 
L 162.003008 -43.909091 
L 162.691721 -43.909091 
L 163.380433 -43.909091 
L 164.069146 -43.909091 
L 164.757859 -43.909091 
L 165.446571 -43.909091 
L 166.135284 -43.909091 
L 166.823997 -43.909091 
L 167.512709 -43.909091 
L 168.201422 -43.909091 
L 168.890135 -43.909091 
L 169.578848 -43.909091 
L 170.26756 -43.909091 
L 170.956273 -43.909091 
L 171.644986 -43.909091 
L 172.333698 -43.909091 
L 173.022411 -43.909091 
L 173.711124 -43.909091 
L 174.399836 -43.909091 
L 175.088549 -43.909091 
L 175.777262 -43.909091 
L 176.465975 -43.909091 
L 177.154687 -43.909091 
L 177.8434 -43.909091 
L 178.532113 -43.909091 
L 179.220825 -43.909091 
L 179.909538 -43.909091 
L 180.598251 -43.909091 
L 181.286963 -43.909091 
L 181.975676 -43.909091 
L 182.664389 -43.909091 
L 183.353102 -43.909091 
L 184.041814 -43.909091 
L 184.730527 -43.909091 
L 185.41924 -43.909091 
L 186.107952 -43.909091 
L 186.796665 -43.909091 
L 187.485378 -43.909091 
L 188.17409 -43.909091 
L 188.862803 -43.909091 
L 189.551516 -43.909091 
L 190.240229 -43.909091 
L 190.928941 -43.909091 
L 191.617654 -43.909091 
L 192.306367 -43.909091 
L 192.995079 -43.909091 
L 193.683792 -43.909091 
L 194.372505 -43.909091 
L 195.061217 -43.909091 
L 195.74993 -43.909091 
L 196.438643 -43.909091 
L 197.127356 -43.909091 
L 197.816068 -43.909091 
L 198.504781 -43.909091 
L 199.193494 -43.909091 
L 199.882206 -43.909091 
L 200.570919 -43.909091 
L 201.259632 -43.909091 
L 201.948344 -43.909091 
L 202.637057 -43.909091 
L 203.32577 -43.909091 
L 204.014483 -43.909091 
L 204.703195 -43.909091 
L 205.391908 -43.909091 
L 206.080621 -43.909091 
L 206.769333 -43.909091 
L 207.458046 -43.909091 
L 208.146759 -43.909091 
L 208.835471 -43.909091 
L 209.524184 -43.909091 
L 210.212897 -43.909091 
L 210.90161 -43.909091 
L 211.590322 -43.909091 
L 212.279035 -43.909091 
L 212.967748 -43.909091 
L 213.65646 -43.909091 
L 214.345173 -43.909091 
L 215.033886 -43.909091 
L 215.722598 -43.909091 
L 216.411311 -43.909091 
L 217.100024 -43.909091 
L 217.788737 -43.909091 
L 218.477449 -43.909091 
L 219.166162 -43.909091 
L 219.854875 -43.909091 
L 220.543587 -43.909091 
L 221.2323 -43.909091 
L 221.921013 -43.909091 
L 222.609725 -43.909091 
L 223.298438 -43.909091 
L 223.987151 -43.909091 
L 224.675864 -43.909091 
L 225.364576 -43.909091 
L 226.053289 -43.909091 
L 226.742002 -43.909091 
L 227.430714 -43.909091 
L 228.119427 -43.909091 
L 228.80814 -43.909091 
L 229.496852 -43.909091 
L 230.185565 -43.909091 
L 230.874278 -43.909091 
L 231.562991 -43.909091 
L 232.251703 -43.909091 
L 232.940416 -43.909091 
L 233.629129 -43.909091 
L 234.317841 -43.909091 
L 235.006554 -43.909091 
L 235.695267 -43.909091 
L 236.383979 -43.909091 
L 237.072692 -43.909091 
L 237.761405 -43.909091 
L 238.450118 -43.909091 
L 239.13883 -43.909091 
L 239.827543 -43.909091 
L 240.516256 -43.909091 
L 241.204968 -43.909091 
L 241.893681 -43.909091 
L 242.582394 -43.909091 
L 243.271106 -43.909091 
L 243.959819 -43.909091 
L 244.648532 -43.909091 
L 245.337245 -43.909091 
L 246.025957 -43.909091 
L 246.71467 -43.909091 
L 247.403383 -43.909091 
L 248.092095 -43.909091 
L 248.780808 -43.909091 
L 249.469521 -43.909091 
L 250.158233 -43.909091 
L 250.846946 -43.909091 
L 251.535659 -43.909091 
L 252.224372 -43.909091 
L 252.913084 -43.909091 
L 253.601797 -43.909091 
L 254.29051 -43.909091 
L 254.979222 -43.909091 
L 255.667935 -43.909091 
L 256.356648 -43.909091 
L 257.04536 -43.909091 
L 257.734073 -43.909091 
L 258.422786 -43.909091 
L 259.111499 -43.909091 
L 259.800211 -43.909091 
L 260.488924 -43.909091 
L 261.177637 -43.909091 
L 261.866349 -43.909091 
L 262.555062 -43.909091 
L 263.243775 -43.909091 
L 263.932487 -43.909091 
L 264.6212 -43.909091 
L 265.309913 -43.909091 
L 265.998626 -43.909091 
L 266.687338 -43.909091 
L 267.376051 -43.909091 
L 268.064764 -43.909091 
L 268.753476 -43.909091 
L 269.442189 -43.909091 
L 270.130902 -43.909091 
L 270.819615 -43.909091 
L 271.508327 -43.909091 
L 272.19704 -43.909091 
L 272.885753 -43.909091 
L 273.574465 -43.909091 
L 274.263178 -43.909091 
L 274.951891 -43.909091 
L 275.640603 -43.909091 
L 276.329316 -43.909091 
L 277.018029 -43.909091 
L 277.706742 -43.909091 
L 278.395454 -43.909091 
L 279.084167 -43.909091 
L 279.77288 -43.909091 
L 280.461592 -43.909091 
L 281.150305 -43.909091 
L 281.839018 -43.909091 
L 282.52773 -43.909091 
L 283.216443 -43.909091 
L 283.905156 -43.909091 
L 284.593869 -43.909091 
L 285.282581 -43.909091 
L 285.971294 -43.909091 
L 286.660007 -43.909091 
L 287.348719 -43.909091 
L 288.037432 -43.909091 
L 288.726145 -43.909091 
L 289.414857 -43.909091 
L 290.10357 -43.909091 
L 290.792283 -43.909091 
L 291.480996 -43.909091 
L 292.169708 -43.909091 
L 292.858421 -43.909091 
L 293.547134 -43.909091 
L 294.235846 -43.909091 
L 294.924559 -43.909091 
L 295.613272 -43.909091 
L 296.301984 -43.909091 
L 296.990697 -43.909091 
L 297.67941 -43.909091 
L 298.368123 -43.909091 
L 299.056835 -43.909091 
L 299.745548 -43.909091 
L 300.434261 -43.909091 
L 301.122973 -43.909091 
L 301.811686 -43.909091 
L 302.500399 -43.909091 
L 303.189111 -43.909091 
L 303.877824 -43.909091 
L 304.566537 -43.909091 
L 305.25525 -43.909091 
L 305.943962 -43.909091 
L 306.632675 -43.909091 
L 307.321388 -43.909091 
L 308.0101 -43.909091 
L 308.698813 -43.909091 
L 309.387526 -43.909091 
L 310.076238 -43.909091 
L 310.764951 -43.909091 
L 311.453664 -43.909091 
L 312.142377 -43.909091 
L 312.831089 -43.909091 
L 313.519802 -43.909091 
L 314.208515 -43.909091 
L 314.897227 -43.909091 
L 315.58594 -43.909091 
L 316.274653 -43.909091 
L 316.963365 -43.909091 
L 317.652078 -43.909091 
L 318.340791 -43.909091 
L 319.029504 -43.909091 
L 319.718216 -43.909091 
L 320.406929 -43.909091 
L 321.095642 -43.909091 
L 321.784354 -43.909091 
L 322.473067 -43.909091 
L 323.16178 -43.909091 
L 323.850492 -43.909091 
L 324.539205 -43.909091 
L 325.227918 -43.909091 
L 325.916631 -43.909091 
L 326.605343 -43.909091 
L 327.294056 -43.909091 
L 327.982769 -43.909091 
L 328.671481 -43.909091 
L 329.360194 -43.909091 
L 330.048907 -43.909091 
L 330.737619 -43.909091 
L 331.426332 -43.909091 
L 332.115045 -43.909091 
L 332.803758 -43.909091 
L 333.49247 -43.909091 
L 334.181183 -43.909091 
L 334.869896 -43.909091 
L 335.558608 -43.909091 
L 336.247321 -43.909091 
L 336.936034 -43.909091 
L 337.624746 -43.909091 
L 338.313459 -43.909091 
L 339.002172 -43.909091 
L 339.690885 -43.909091 
L 340.379597 -43.909091 
L 341.06831 -43.909091 
L 341.757023 -43.909091 
L 342.445735 -43.909091 
L 343.134448 -43.909091 
L 343.823161 -43.909091 
L 344.511873 -43.909091 
L 345.200586 -43.909091 
L 345.889299 -43.909091 
L 346.578012 -43.909091 
L 347.266724 -43.909091 
L 347.955437 -43.909091 
L 348.64415 -43.909091 
L 349.332862 -43.909091 
L 350.021575 -43.909091 
L 350.710288 -43.909091 
L 351.399 -43.909091 
L 352.087713 -43.909091 
L 352.776426 -43.909091 
L 353.465139 -43.909091 
L 354.153851 -43.909091 
L 354.842564 -43.909091 
L 355.531277 -43.909091 
L 356.219989 -43.909091 
L 356.908702 -43.909091 
L 357.597415 -43.909091 
L 358.286127 -43.909091 
L 358.97484 -43.909091 
L 359.663553 -43.909091 
L 360.352266 -43.909091 
L 361.040978 -43.909091 
L 361.729691 -43.909091 
L 362.418404 -43.909091 
L 363.107116 -43.909091 
L 363.795829 -43.909091 
L 364.484542 -43.909091 
L 365.173254 -43.909091 
L 365.861967 -43.909091 
L 366.55068 -43.909091 
L 367.239393 -43.909091 
L 367.928105 -43.909091 
L 368.616818 -43.909091 
L 369.305531 -43.909091 
L 369.994243 -43.909091 
L 370.682956 -43.909091 
L 371.371669 -43.909091 
L 372.060381 -43.909091 
L 372.749094 -43.909091 
L 373.437807 -43.909091 
L 374.12652 -43.909091 
L 374.815232 -43.909091 
L 375.503945 -43.909091 
L 376.192658 -43.909091 
L 376.88137 -43.909091 
L 377.570083 -43.909091 
L 378.258796 -43.909091 
L 378.947508 -43.909091 
L 379.636221 -43.909091 
L 380.324934 -43.909091 
L 381.013647 -43.909091 
L 381.702359 -43.909091 
L 382.391072 -43.909091 
L 383.079785 -43.909091 
L 383.768497 -43.909091 
L 384.45721 -43.909091 
L 385.145923 -43.909091 
L 385.834635 -43.909091 
L 386.523348 -43.909091 
L 387.212061 -43.909091 
L 387.900774 -43.909091 
L 388.589486 -43.909091 
L 389.278199 -43.909091 
L 389.966912 -43.909091 
L 390.655624 -43.909091 
L 391.344337 -43.909091 
L 392.03305 -43.909091 
L 392.721762 -43.909091 
L 393.410475 -43.909091 
L 394.099188 -43.909091 
L 394.787901 -43.909091 
L 395.476613 -43.909091 
L 396.165326 -43.909091 
L 396.854039 -43.909091 
L 397.542751 -43.909091 
L 399.636725 -43.909091 
L 399.636725 -230.230919 
L 399.636725 -230.230919 
L 397.542751 -230.105164 
L 396.854039 -230.063387 
L 396.165326 -230.0214 
L 395.476613 -229.979204 
L 394.787901 -229.936794 
L 394.099188 -229.89417 
L 393.410475 -229.851331 
L 392.721762 -229.808273 
L 392.03305 -229.764996 
L 391.344337 -229.721497 
L 390.655624 -229.677774 
L 389.966912 -229.633826 
L 389.278199 -229.589651 
L 388.589486 -229.545247 
L 387.900774 -229.500612 
L 387.212061 -229.455743 
L 386.523348 -229.41064 
L 385.834635 -229.365299 
L 385.145923 -229.31972 
L 384.45721 -229.273899 
L 383.768497 -229.227835 
L 383.079785 -229.181526 
L 382.391072 -229.13497 
L 381.702359 -229.088223 
L 381.013647 -229.041178 
L 380.324934 -228.993823 
L 379.636221 -228.946214 
L 378.947508 -228.898347 
L 378.258796 -228.850222 
L 377.570083 -228.801834 
L 376.88137 -228.753183 
L 376.192658 -228.704266 
L 375.503945 -228.655081 
L 374.815232 -228.605625 
L 374.12652 -228.555896 
L 373.437807 -228.505892 
L 372.749094 -228.45561 
L 372.060381 -228.405048 
L 371.371669 -228.355532 
L 370.682956 -228.306332 
L 369.994243 -228.256787 
L 369.305531 -228.206896 
L 368.616818 -228.156655 
L 367.928105 -228.106061 
L 367.239393 -228.055112 
L 366.55068 -228.003805 
L 365.861967 -227.952137 
L 365.173254 -227.900105 
L 364.484542 -227.847705 
L 363.795829 -227.795446 
L 363.107116 -227.743042 
L 362.418404 -227.690275 
L 361.729691 -227.637973 
L 361.040978 -227.585286 
L 360.352266 -227.532211 
L 359.663553 -227.478744 
L 358.97484 -227.424882 
L 358.286127 -227.370622 
L 357.597415 -227.31596 
L 356.908702 -227.260893 
L 356.219989 -227.205418 
L 355.531277 -227.149531 
L 354.842564 -227.093229 
L 354.153851 -227.036507 
L 353.465139 -226.979364 
L 352.776426 -226.921794 
L 352.087713 -226.863794 
L 351.399 -226.805362 
L 350.710288 -226.746492 
L 350.021575 -226.687181 
L 349.332862 -226.627426 
L 348.64415 -226.567222 
L 347.955437 -226.506567 
L 347.266724 -226.445455 
L 346.578012 -226.383883 
L 345.889299 -226.321847 
L 345.200586 -226.259343 
L 344.511873 -226.196367 
L 343.823161 -226.132914 
L 343.134448 -226.068982 
L 342.445735 -226.004564 
L 341.757023 -225.939658 
L 341.06831 -225.874259 
L 340.379597 -225.808362 
L 339.690885 -225.741963 
L 339.002172 -225.675058 
L 338.313459 -225.607643 
L 337.624746 -225.539712 
L 336.936034 -225.471261 
L 336.247321 -225.402285 
L 335.558608 -225.33278 
L 334.869896 -225.262741 
L 334.181183 -225.192163 
L 333.49247 -225.121241 
L 332.803758 -225.050272 
L 332.115045 -224.978739 
L 331.426332 -224.907152 
L 330.737619 -224.834997 
L 330.048907 -224.762269 
L 329.360194 -224.688964 
L 328.671481 -224.615075 
L 327.982769 -224.540597 
L 327.294056 -224.465524 
L 326.605343 -224.389852 
L 325.916631 -224.313574 
L 325.227918 -224.236684 
L 324.539205 -224.159178 
L 323.850492 -224.081048 
L 323.16178 -224.002289 
L 322.473067 -223.922895 
L 321.784354 -223.84286 
L 321.095642 -223.762177 
L 320.406929 -223.680841 
L 319.718216 -223.598844 
L 319.029504 -223.51618 
L 318.340791 -223.432843 
L 317.652078 -223.348826 
L 316.963365 -223.264122 
L 316.274653 -223.179375 
L 315.58594 -223.094779 
L 314.897227 -223.009425 
L 314.208515 -222.923705 
L 313.519802 -222.837324 
L 312.831089 -222.750171 
L 312.142377 -222.662236 
L 311.453664 -222.573513 
L 310.764951 -222.483993 
L 310.076238 -222.393668 
L 309.387526 -222.302529 
L 308.698813 -222.210568 
L 308.0101 -222.117777 
L 307.321388 -222.024147 
L 306.632675 -221.929668 
L 305.943962 -221.834332 
L 305.25525 -221.738129 
L 304.566537 -221.641051 
L 303.877824 -221.543087 
L 303.189111 -221.444228 
L 302.500399 -221.344463 
L 301.811686 -221.243784 
L 301.122973 -221.142179 
L 300.434261 -221.039637 
L 299.745548 -220.93615 
L 299.056835 -220.831704 
L 298.368123 -220.72629 
L 297.67941 -220.619896 
L 296.990697 -220.51251 
L 296.301984 -220.40412 
L 295.613272 -220.294715 
L 294.924559 -220.184282 
L 294.235846 -220.072809 
L 293.547134 -219.960282 
L 292.858421 -219.84669 
L 292.169708 -219.732017 
L 291.480996 -219.616251 
L 290.792283 -219.499377 
L 290.10357 -219.381381 
L 289.414857 -219.262248 
L 288.726145 -219.141964 
L 288.037432 -219.020513 
L 287.348719 -218.897879 
L 286.660007 -218.774046 
L 285.971294 -218.648997 
L 285.282581 -218.522716 
L 284.593869 -218.395185 
L 283.905156 -218.266386 
L 283.216443 -218.136301 
L 282.52773 -218.00491 
L 281.839018 -217.872196 
L 281.150305 -217.738137 
L 280.461592 -217.602713 
L 279.77288 -217.465904 
L 279.084167 -217.327687 
L 278.395454 -217.189075 
L 277.706742 -217.050337 
L 277.018029 -216.910289 
L 276.329316 -216.769792 
L 275.640603 -216.62817 
L 274.951891 -216.485164 
L 274.263178 -216.340752 
L 273.574465 -216.194913 
L 272.885753 -216.047627 
L 272.19704 -215.898871 
L 271.508327 -215.748622 
L 270.819615 -215.596857 
L 270.130902 -215.443553 
L 269.442189 -215.289312 
L 268.753476 -215.135986 
L 268.064764 -214.98179 
L 267.376051 -214.826642 
L 266.687338 -214.670062 
L 265.998626 -214.513202 
L 265.309913 -214.355609 
L 264.6212 -214.196638 
L 263.932487 -214.035841 
L 263.243775 -213.872798 
L 262.555062 -213.708401 
L 261.866349 -213.542632 
L 261.177637 -213.375473 
L 260.488924 -213.206906 
L 259.800211 -213.036914 
L 259.111499 -212.865478 
L 258.422786 -212.692578 
L 257.734073 -212.518194 
L 257.04536 -212.342306 
L 256.356648 -212.164894 
L 255.667935 -211.985935 
L 254.979222 -211.805409 
L 254.29051 -211.623291 
L 253.601797 -211.43956 
L 252.913084 -211.254191 
L 252.224372 -211.06772 
L 251.535659 -210.879939 
L 250.846946 -210.690457 
L 250.158233 -210.499245 
L 249.469521 -210.306276 
L 248.780808 -210.111521 
L 248.092095 -209.91495 
L 247.403383 -209.716533 
L 246.71467 -209.516237 
L 246.025957 -209.314029 
L 245.337245 -209.109874 
L 244.648532 -208.903737 
L 243.959819 -208.69558 
L 243.271106 -208.485366 
L 242.582394 -208.273052 
L 241.893681 -208.058597 
L 241.204968 -207.841958 
L 240.516256 -207.623088 
L 239.827543 -207.403548 
L 239.13883 -207.185663 
L 238.450118 -206.965977 
L 237.761405 -206.744473 
L 237.072692 -206.521133 
L 236.383979 -206.297677 
L 235.695267 -206.072545 
L 235.006554 -205.845542 
L 234.317841 -205.616648 
L 233.629129 -205.385845 
L 232.940416 -205.153111 
L 232.251703 -204.918428 
L 231.562991 -204.681774 
L 230.874278 -204.443129 
L 230.185565 -204.202472 
L 229.496852 -203.959781 
L 228.80814 -203.715034 
L 228.119427 -203.468208 
L 227.430714 -203.219282 
L 226.742002 -202.968144 
L 226.053289 -202.714845 
L 225.364576 -202.459374 
L 224.675864 -202.201706 
L 223.987151 -201.941817 
L 223.298438 -201.67968 
L 222.609725 -201.415268 
L 221.921013 -201.148556 
L 221.2323 -200.878603 
L 220.543587 -200.606069 
L 219.854875 -200.330033 
L 219.166162 -200.047519 
L 218.477449 -199.763018 
L 217.788737 -199.476493 
L 217.100024 -199.187905 
L 216.411311 -198.897212 
L 215.722598 -198.606084 
L 215.033886 -198.320038 
L 214.345173 -198.030175 
L 213.65646 -197.736509 
L 212.967748 -197.43905 
L 212.279035 -197.137806 
L 211.590322 -196.83278 
L 210.90161 -196.523971 
L 210.212897 -196.211373 
L 209.524184 -195.894975 
L 208.835471 -195.574762 
L 208.146759 -195.250714 
L 207.458046 -194.922803 
L 206.769333 -194.611167 
L 206.080621 -194.288911 
L 205.391908 -193.954786 
L 204.703195 -193.609696 
L 204.014483 -193.254423 
L 203.32577 -192.889641 
L 202.637057 -192.515926 
L 201.948344 -192.133764 
L 201.259632 -191.743557 
L 200.570919 -191.345634 
L 199.882206 -190.941278 
L 199.193494 -190.537553 
L 198.504781 -190.128163 
L 197.816068 -189.713323 
L 197.127356 -189.293214 
L 196.438643 -188.867883 
L 195.74993 -188.437236 
L 195.061217 -188.001658 
L 194.372505 -187.561207 
L 193.683792 -187.115915 
L 192.995079 -186.665793 
L 192.306367 -186.210828 
L 191.617654 -185.750991 
L 190.928941 -185.286191 
L 190.240229 -184.815516 
L 189.551516 -184.339762 
L 188.862803 -183.85882 
L 188.17409 -183.372557 
L 187.485378 -182.880822 
L 186.796665 -182.383437 
L 186.107952 -181.888918 
L 185.41924 -181.399071 
L 184.730527 -180.911734 
L 184.041814 -180.416212 
L 183.353102 -179.913134 
L 182.664389 -179.401354 
L 181.975676 -178.890419 
L 181.286963 -178.373306 
L 180.598251 -177.847307 
L 179.909538 -177.311933 
L 179.220825 -176.769094 
L 178.532113 -176.221959 
L 177.8434 -175.663695 
L 177.154687 -175.09896 
L 176.465975 -174.528123 
L 175.777262 -173.95152 
L 175.088549 -173.369454 
L 174.399836 -172.781343 
L 173.711124 -172.188288 
L 173.022411 -171.590526 
L 172.333698 -170.995822 
L 171.644986 -170.416539 
L 170.956273 -169.807278 
L 170.26756 -169.174142 
L 169.578848 -168.521868 
L 168.890135 -167.851349 
L 168.201422 -167.16707 
L 167.512709 -166.473059 
L 166.823997 -165.770758 
L 166.135284 -165.060892 
L 165.446571 -164.343478 
L 164.757859 -163.620419 
L 164.069146 -162.892054 
L 163.380433 -162.158553 
L 162.691721 -161.417365 
L 162.003008 -160.669986 
L 161.314295 -159.91937 
L 160.625582 -159.164596 
L 159.93687 -158.403627 
L 159.248157 -157.639143 
L 158.559444 -156.870172 
L 157.870732 -156.111737 
L 157.182019 -155.352806 
L 156.493306 -154.593426 
L 155.804594 -153.833661 
L 155.115881 -153.076995 
L 154.427168 -152.320585 
L 153.738455 -151.523381 
L 153.049743 -150.789529 
L 152.36103 -150.109718 
L 151.672317 -149.467908 
L 150.983605 -148.805493 
L 150.294892 -148.236029 
L 149.606179 -147.84675 
L 148.917467 -147.54895 
L 148.228754 -147.289194 
L 147.540041 -146.999762 
L 146.851328 -146.695 
L 146.162616 -146.366313 
L 145.473903 -146.039113 
L 144.78519 -145.726755 
L 144.096478 -145.42792 
L 143.407765 -145.137712 
L 142.719052 -144.850482 
L 142.03034 -144.56483 
L 141.341627 -144.233919 
L 140.652914 -144.030203 
L 139.964201 -143.898152 
L 139.275489 -143.799934 
L 138.586776 -143.751442 
L 137.898063 -143.722391 
L 137.209351 -143.713899 
L 136.520638 -143.706527 
L 135.831925 -143.684248 
L 135.143212 -143.656878 
L 134.4545 -143.628677 
L 133.765787 -143.600193 
L 133.077074 -143.572873 
L 132.388362 -143.546408 
L 131.699649 -143.533196 
L 131.010936 -143.533126 
L 130.322224 -143.540419 
L 129.633511 -143.554661 
L 128.944798 -143.575534 
L 128.256085 -143.603525 
L 127.567373 -143.637057 
L 126.87866 -143.674237 
L 126.189947 -143.712591 
L 125.501235 -143.749739 
L 124.812522 -143.787041 
L 124.123809 -143.852151 
L 123.435097 -143.930006 
L 122.746384 -144.018521 
L 122.057671 -144.116412 
L 121.368958 -144.21838 
L 120.680246 -144.325281 
L 119.991533 -144.431479 
L 119.30282 -144.528251 
L 118.614108 -144.611288 
L 117.925395 -144.726892 
L 117.236682 -144.852987 
L 116.54797 -144.989949 
L 115.859257 -145.136044 
L 115.170544 -145.287614 
L 114.481831 -145.441621 
L 113.793119 -145.591882 
L 113.104406 -145.720775 
L 112.415693 -145.894981 
L 111.726981 -146.10352 
L 111.038268 -146.316878 
L 110.349555 -146.537709 
L 109.660843 -146.785143 
L 108.97213 -147.034989 
L 108.283417 -147.142448 
L 107.594704 -147.229379 
L 106.905992 -147.341755 
L 106.217279 -147.404774 
L 105.528566 -147.430878 
L 104.839854 -147.451456 
L 104.151141 -147.487966 
L 103.462428 -147.537019 
L 102.773716 -147.594666 
L 102.085003 -147.664302 
L 101.39629 -147.742513 
L 100.707577 -147.819478 
L 100.018865 -147.916024 
L 99.330152 -148.040046 
L 98.641439 -148.189284 
L 97.952727 -148.360965 
L 97.264014 -148.571138 
L 96.575301 -148.764509 
L 95.886589 -148.933291 
L 95.197876 -149.097447 
L 94.509163 -149.138028 
L 93.82045 -149.123048 
L 93.131738 -149.130046 
L 92.443025 -149.152872 
L 91.754312 -149.155068 
L 91.0656 -148.991324 
L 90.376887 -148.72238 
L 89.688174 -148.481467 
L 88.999462 -148.268725 
L 88.310749 -148.100087 
L 87.622036 -147.917407 
L 86.933323 -147.681241 
L 86.244611 -147.363138 
L 85.555898 -147.035088 
L 84.867185 -146.672833 
L 84.178473 -146.250957 
L 83.48976 -145.81003 
L 82.801047 -145.314281 
L 82.112335 -144.789753 
L 81.423622 -144.284117 
L 80.734909 -143.778918 
L 80.046196 -143.237839 
L 79.357484 -142.664782 
L 78.668771 -142.14629 
L 77.980058 -141.544913 
L 77.291346 -140.814889 
L 76.602633 -140.096072 
L 75.91392 -139.367278 
L 75.225208 -138.664168 
L 74.536495 -137.982898 
L 73.847782 -137.393012 
L 73.159069 -136.845463 
L 72.470357 -136.297387 
L 71.781644 -135.72151 
L 71.092931 -135.110065 
L 70.404219 -134.417838 
L 69.715506 -133.679274 
L 69.026793 -132.933761 
L 68.338081 -132.22035 
L 67.649368 -131.511319 
z
" id="m0900fad663" style="stroke:#008000;stroke-opacity:0.03;"/>
    </defs>
    <g clip-path="url(#p8d6ef44ddc)">
     <use style="fill:#008000;fill-opacity:0.03;stroke:#008000;stroke-opacity:0.03;" x="0" xlink:href="#m0900fad663" y="288"/>
    </g>
   </g>
   <g id="matplotlib.axis_1">
    <g id="xtick_1">
     <g id="line2d_1">
      <defs>
       <path d="M 0 0 
L 0 3.5 
" id="m25ca7c834b" style="stroke:#000000;stroke-width:0.8;"/>
      </defs>
      <g>
       <use style="stroke:#000000;stroke-width:0.8;" x="67.649368" xlink:href="#m25ca7c834b" y="255.2"/>
      </g>
     </g>
     <g id="text_1">
      <!-- 0 -->
      <g transform="translate(62.877493 273.597656)scale(0.15 -0.15)">
       <defs>
        <path d="M 31.78125 66.40625 
Q 24.171875 66.40625 20.328125 58.90625 
Q 16.5 51.421875 16.5 36.375 
Q 16.5 21.390625 20.328125 13.890625 
Q 24.171875 6.390625 31.78125 6.390625 
Q 39.453125 6.390625 43.28125 13.890625 
Q 47.125 21.390625 47.125 36.375 
Q 47.125 51.421875 43.28125 58.90625 
Q 39.453125 66.40625 31.78125 66.40625 
z
M 31.78125 74.21875 
Q 44.046875 74.21875 50.515625 64.515625 
Q 56.984375 54.828125 56.984375 36.375 
Q 56.984375 17.96875 50.515625 8.265625 
Q 44.046875 -1.421875 31.78125 -1.421875 
Q 19.53125 -1.421875 13.0625 8.265625 
Q 6.59375 17.96875 6.59375 36.375 
Q 6.59375 54.828125 13.0625 64.515625 
Q 19.53125 74.21875 31.78125 74.21875 
z
" id="DejaVuSans-48"/>
       </defs>
       <use xlink:href="#DejaVuSans-48"/>
      </g>
     </g>
    </g>
    <g id="xtick_2">
     <g id="line2d_2">
      <g>
       <use style="stroke:#000000;stroke-width:0.8;" x="136.377156" xlink:href="#m25ca7c834b" y="255.2"/>
      </g>
     </g>
     <g id="text_2">
      <!-- 5 -->
      <g transform="translate(131.605281 273.597656)scale(0.15 -0.15)">
       <defs>
        <path d="M 10.796875 72.90625 
L 49.515625 72.90625 
L 49.515625 64.59375 
L 19.828125 64.59375 
L 19.828125 46.734375 
Q 21.96875 47.46875 24.109375 47.828125 
Q 26.265625 48.1875 28.421875 48.1875 
Q 40.625 48.1875 47.75 41.5 
Q 54.890625 34.8125 54.890625 23.390625 
Q 54.890625 11.625 47.5625 5.09375 
Q 40.234375 -1.421875 26.90625 -1.421875 
Q 22.3125 -1.421875 17.546875 -0.640625 
Q 12.796875 0.140625 7.71875 1.703125 
L 7.71875 11.625 
Q 12.109375 9.234375 16.796875 8.0625 
Q 21.484375 6.890625 26.703125 6.890625 
Q 35.15625 6.890625 40.078125 11.328125 
Q 45.015625 15.765625 45.015625 23.390625 
Q 45.015625 31 40.078125 35.4375 
Q 35.15625 39.890625 26.703125 39.890625 
Q 22.75 39.890625 18.8125 39.015625 
Q 14.890625 38.140625 10.796875 36.28125 
z
" id="DejaVuSans-53"/>
       </defs>
       <use xlink:href="#DejaVuSans-53"/>
      </g>
     </g>
    </g>
    <g id="xtick_3">
     <g id="line2d_3">
      <g>
       <use style="stroke:#000000;stroke-width:0.8;" x="205.104944" xlink:href="#m25ca7c834b" y="255.2"/>
      </g>
     </g>
     <g id="text_3">
      <!-- 10 -->
      <g transform="translate(195.561194 273.597656)scale(0.15 -0.15)">
       <defs>
        <path d="M 12.40625 8.296875 
L 28.515625 8.296875 
L 28.515625 63.921875 
L 10.984375 60.40625 
L 10.984375 69.390625 
L 28.421875 72.90625 
L 38.28125 72.90625 
L 38.28125 8.296875 
L 54.390625 8.296875 
L 54.390625 0 
L 12.40625 0 
z
" id="DejaVuSans-49"/>
       </defs>
       <use xlink:href="#DejaVuSans-49"/>
       <use x="63.623047" xlink:href="#DejaVuSans-48"/>
      </g>
     </g>
    </g>
    <g id="xtick_4">
     <g id="line2d_4">
      <g>
       <use style="stroke:#000000;stroke-width:0.8;" x="273.832733" xlink:href="#m25ca7c834b" y="255.2"/>
      </g>
     </g>
     <g id="text_4">
      <!-- 15 -->
      <g transform="translate(264.288983 273.597656)scale(0.15 -0.15)">
       <use xlink:href="#DejaVuSans-49"/>
       <use x="63.623047" xlink:href="#DejaVuSans-53"/>
      </g>
     </g>
    </g>
    <g id="xtick_5">
     <g id="line2d_5">
      <g>
       <use style="stroke:#000000;stroke-width:0.8;" x="342.560521" xlink:href="#m25ca7c834b" y="255.2"/>
      </g>
     </g>
     <g id="text_5">
      <!-- 20 -->
      <g transform="translate(333.016771 273.597656)scale(0.15 -0.15)">
       <defs>
        <path d="M 19.1875 8.296875 
L 53.609375 8.296875 
L 53.609375 0 
L 7.328125 0 
L 7.328125 8.296875 
Q 12.9375 14.109375 22.625 23.890625 
Q 32.328125 33.6875 34.8125 36.53125 
Q 39.546875 41.84375 41.421875 45.53125 
Q 43.3125 49.21875 43.3125 52.78125 
Q 43.3125 58.59375 39.234375 62.25 
Q 35.15625 65.921875 28.609375 65.921875 
Q 23.96875 65.921875 18.8125 64.3125 
Q 13.671875 62.703125 7.8125 59.421875 
L 7.8125 69.390625 
Q 13.765625 71.78125 18.9375 73 
Q 24.125 74.21875 28.421875 74.21875 
Q 39.75 74.21875 46.484375 68.546875 
Q 53.21875 62.890625 53.21875 53.421875 
Q 53.21875 48.921875 51.53125 44.890625 
Q 49.859375 40.875 45.40625 35.40625 
Q 44.1875 33.984375 37.640625 27.21875 
Q 31.109375 20.453125 19.1875 8.296875 
z
" id="DejaVuSans-50"/>
       </defs>
       <use xlink:href="#DejaVuSans-50"/>
       <use x="63.623047" xlink:href="#DejaVuSans-48"/>
      </g>
     </g>
    </g>
    <g id="xtick_6">
     <g id="line2d_6">
      <g>
       <use style="stroke:#000000;stroke-width:0.8;" x="411.288309" xlink:href="#m25ca7c834b" y="255.2"/>
      </g>
     </g>
     <g id="text_6">
      <!-- 25 -->
      <g transform="translate(401.744559 273.597656)scale(0.15 -0.15)">
       <use xlink:href="#DejaVuSans-50"/>
       <use x="63.623047" xlink:href="#DejaVuSans-53"/>
      </g>
     </g>
    </g>
   </g>
   <g id="matplotlib.axis_2">
    <g id="ytick_1">
     <g id="line2d_7">
      <defs>
       <path d="M 0 0 
L -3.5 0 
" id="m75a365e10c" style="stroke:#000000;stroke-width:0.8;"/>
      </defs>
      <g>
       <use style="stroke:#000000;stroke-width:0.8;" x="51.05" xlink:href="#m75a365e10c" y="244.090909"/>
      </g>
     </g>
     <g id="text_7">
      <!-- 0.0 -->
      <g transform="translate(20.195313 249.789737)scale(0.15 -0.15)">
       <defs>
        <path d="M 10.6875 12.40625 
L 21 12.40625 
L 21 0 
L 10.6875 0 
z
" id="DejaVuSans-46"/>
       </defs>
       <use xlink:href="#DejaVuSans-48"/>
       <use x="63.623047" xlink:href="#DejaVuSans-46"/>
       <use x="95.410156" xlink:href="#DejaVuSans-48"/>
      </g>
     </g>
    </g>
    <g id="ytick_2">
     <g id="line2d_8">
      <g>
       <use style="stroke:#000000;stroke-width:0.8;" x="51.05" xlink:href="#m75a365e10c" y="212.34409"/>
      </g>
     </g>
     <g id="text_8">
      <!-- 0.2 -->
      <g transform="translate(20.195313 218.042918)scale(0.15 -0.15)">
       <use xlink:href="#DejaVuSans-48"/>
       <use x="63.623047" xlink:href="#DejaVuSans-46"/>
       <use x="95.410156" xlink:href="#DejaVuSans-50"/>
      </g>
     </g>
    </g>
    <g id="ytick_3">
     <g id="line2d_9">
      <g>
       <use style="stroke:#000000;stroke-width:0.8;" x="51.05" xlink:href="#m75a365e10c" y="180.59727"/>
      </g>
     </g>
     <g id="text_9">
      <!-- 0.4 -->
      <g transform="translate(20.195313 186.296099)scale(0.15 -0.15)">
       <defs>
        <path d="M 37.796875 64.3125 
L 12.890625 25.390625 
L 37.796875 25.390625 
z
M 35.203125 72.90625 
L 47.609375 72.90625 
L 47.609375 25.390625 
L 58.015625 25.390625 
L 58.015625 17.1875 
L 47.609375 17.1875 
L 47.609375 0 
L 37.796875 0 
L 37.796875 17.1875 
L 4.890625 17.1875 
L 4.890625 26.703125 
z
" id="DejaVuSans-52"/>
       </defs>
       <use xlink:href="#DejaVuSans-48"/>
       <use x="63.623047" xlink:href="#DejaVuSans-46"/>
       <use x="95.410156" xlink:href="#DejaVuSans-52"/>
      </g>
     </g>
    </g>
    <g id="ytick_4">
     <g id="line2d_10">
      <g>
       <use style="stroke:#000000;stroke-width:0.8;" x="51.05" xlink:href="#m75a365e10c" y="148.850451"/>
      </g>
     </g>
     <g id="text_10">
      <!-- 0.6 -->
      <g transform="translate(20.195313 154.549279)scale(0.15 -0.15)">
       <defs>
        <path d="M 33.015625 40.375 
Q 26.375 40.375 22.484375 35.828125 
Q 18.609375 31.296875 18.609375 23.390625 
Q 18.609375 15.53125 22.484375 10.953125 
Q 26.375 6.390625 33.015625 6.390625 
Q 39.65625 6.390625 43.53125 10.953125 
Q 47.40625 15.53125 47.40625 23.390625 
Q 47.40625 31.296875 43.53125 35.828125 
Q 39.65625 40.375 33.015625 40.375 
z
M 52.59375 71.296875 
L 52.59375 62.3125 
Q 48.875 64.0625 45.09375 64.984375 
Q 41.3125 65.921875 37.59375 65.921875 
Q 27.828125 65.921875 22.671875 59.328125 
Q 17.53125 52.734375 16.796875 39.40625 
Q 19.671875 43.65625 24.015625 45.921875 
Q 28.375 48.1875 33.59375 48.1875 
Q 44.578125 48.1875 50.953125 41.515625 
Q 57.328125 34.859375 57.328125 23.390625 
Q 57.328125 12.15625 50.6875 5.359375 
Q 44.046875 -1.421875 33.015625 -1.421875 
Q 20.359375 -1.421875 13.671875 8.265625 
Q 6.984375 17.96875 6.984375 36.375 
Q 6.984375 53.65625 15.1875 63.9375 
Q 23.390625 74.21875 37.203125 74.21875 
Q 40.921875 74.21875 44.703125 73.484375 
Q 48.484375 72.75 52.59375 71.296875 
z
" id="DejaVuSans-54"/>
       </defs>
       <use xlink:href="#DejaVuSans-48"/>
       <use x="63.623047" xlink:href="#DejaVuSans-46"/>
       <use x="95.410156" xlink:href="#DejaVuSans-54"/>
      </g>
     </g>
    </g>
    <g id="ytick_5">
     <g id="line2d_11">
      <g>
       <use style="stroke:#000000;stroke-width:0.8;" x="51.05" xlink:href="#m75a365e10c" y="117.103632"/>
      </g>
     </g>
     <g id="text_11">
      <!-- 0.8 -->
      <g transform="translate(20.195313 122.80246)scale(0.15 -0.15)">
       <defs>
        <path d="M 31.78125 34.625 
Q 24.75 34.625 20.71875 30.859375 
Q 16.703125 27.09375 16.703125 20.515625 
Q 16.703125 13.921875 20.71875 10.15625 
Q 24.75 6.390625 31.78125 6.390625 
Q 38.8125 6.390625 42.859375 10.171875 
Q 46.921875 13.96875 46.921875 20.515625 
Q 46.921875 27.09375 42.890625 30.859375 
Q 38.875 34.625 31.78125 34.625 
z
M 21.921875 38.8125 
Q 15.578125 40.375 12.03125 44.71875 
Q 8.5 49.078125 8.5 55.328125 
Q 8.5 64.0625 14.71875 69.140625 
Q 20.953125 74.21875 31.78125 74.21875 
Q 42.671875 74.21875 48.875 69.140625 
Q 55.078125 64.0625 55.078125 55.328125 
Q 55.078125 49.078125 51.53125 44.71875 
Q 48 40.375 41.703125 38.8125 
Q 48.828125 37.15625 52.796875 32.3125 
Q 56.78125 27.484375 56.78125 20.515625 
Q 56.78125 9.90625 50.3125 4.234375 
Q 43.84375 -1.421875 31.78125 -1.421875 
Q 19.734375 -1.421875 13.25 4.234375 
Q 6.78125 9.90625 6.78125 20.515625 
Q 6.78125 27.484375 10.78125 32.3125 
Q 14.796875 37.15625 21.921875 38.8125 
z
M 18.3125 54.390625 
Q 18.3125 48.734375 21.84375 45.5625 
Q 25.390625 42.390625 31.78125 42.390625 
Q 38.140625 42.390625 41.71875 45.5625 
Q 45.3125 48.734375 45.3125 54.390625 
Q 45.3125 60.0625 41.71875 63.234375 
Q 38.140625 66.40625 31.78125 66.40625 
Q 25.390625 66.40625 21.84375 63.234375 
Q 18.3125 60.0625 18.3125 54.390625 
z
" id="DejaVuSans-56"/>
       </defs>
       <use xlink:href="#DejaVuSans-48"/>
       <use x="63.623047" xlink:href="#DejaVuSans-46"/>
       <use x="95.410156" xlink:href="#DejaVuSans-56"/>
      </g>
     </g>
    </g>
    <g id="ytick_6">
     <g id="line2d_12">
      <g>
       <use style="stroke:#000000;stroke-width:0.8;" x="51.05" xlink:href="#m75a365e10c" y="85.356813"/>
      </g>
     </g>
     <g id="text_12">
      <!-- 1.0 -->
      <g transform="translate(20.195313 91.055641)scale(0.15 -0.15)">
       <use xlink:href="#DejaVuSans-49"/>
       <use x="63.623047" xlink:href="#DejaVuSans-46"/>
       <use x="95.410156" xlink:href="#DejaVuSans-48"/>
      </g>
     </g>
    </g>
    <g id="ytick_7">
     <g id="line2d_13">
      <g>
       <use style="stroke:#000000;stroke-width:0.8;" x="51.05" xlink:href="#m75a365e10c" y="53.609993"/>
      </g>
     </g>
     <g id="text_13">
      <!-- 1.2 -->
      <g transform="translate(20.195313 59.308821)scale(0.15 -0.15)">
       <use xlink:href="#DejaVuSans-49"/>
       <use x="63.623047" xlink:href="#DejaVuSans-46"/>
       <use x="95.410156" xlink:href="#DejaVuSans-50"/>
      </g>
     </g>
    </g>
    <g id="ytick_8">
     <g id="line2d_14">
      <g>
       <use style="stroke:#000000;stroke-width:0.8;" x="51.05" xlink:href="#m75a365e10c" y="21.863174"/>
      </g>
     </g>
     <g id="text_14">
      <!-- 1.4 -->
      <g transform="translate(20.195313 27.562002)scale(0.15 -0.15)">
       <use xlink:href="#DejaVuSans-49"/>
       <use x="63.623047" xlink:href="#DejaVuSans-46"/>
       <use x="95.410156" xlink:href="#DejaVuSans-52"/>
      </g>
     </g>
    </g>
   </g>
   <g id="line2d_15">
    <path clip-path="url(#p8d6ef44ddc)" d="M 67.649368 22.225296 
L 69.026793 22.033114 
L 69.715506 21.909091 
L 70.404219 21.934356 
L 71.092931 22.289243 
L 73.159069 24.339637 
L 75.91392 27.266466 
L 79.357484 32.63351 
L 80.734909 34.520913 
L 82.801047 37.628644 
L 88.999462 46.087601 
L 92.443025 50.5368 
L 95.886589 55.847634 
L 97.952727 59.761293 
L 98.641439 61.322456 
L 102.085003 70.907541 
L 105.528566 79.977055 
L 109.660843 90.331034 
L 113.793119 99.929008 
L 116.54797 106.426767 
L 119.991533 114.734983 
L 126.189947 129.254779 
L 130.322224 138.606655 
L 134.4545 147.855564 
L 138.586776 156.035317 
L 141.341627 161.070467 
L 144.096478 165.609187 
L 149.606179 174.10679 
L 151.672317 176.842276 
L 154.427168 180.099122 
L 155.804594 181.73575 
L 159.93687 187.436978 
L 162.691721 190.437319 
L 165.446571 193.095038 
L 168.201422 195.414608 
L 170.956273 197.423436 
L 173.711124 199.106389 
L 178.532113 201.499062 
L 181.975676 202.962448 
L 184.730527 203.879722 
L 186.796665 204.366358 
L 194.372505 205.363339 
L 197.127356 205.469241 
L 202.637057 205.45738 
L 232.940416 203.38743 
L 240.516256 202.548737 
L 262.555062 200.249478 
L 284.593869 198.182182 
L 315.58594 195.328048 
L 330.737619 193.74396 
L 347.266724 192.265984 
L 367.928105 190.638673 
L 389.278199 189.164212 
L 399.636725 188.513252 
L 399.636725 188.513252 
" style="fill:none;stroke:#0000ff;stroke-dasharray:7.4,3.2;stroke-dashoffset:0;stroke-width:2;"/>
   </g>
   <g id="line2d_16">
    <path clip-path="url(#p8d6ef44ddc)" d="M 67.649368 217.846358 
L 69.715506 216.468804 
L 71.781644 214.722267 
L 73.847782 212.553377 
L 84.178473 200.364488 
L 89.688174 193.684772 
L 94.509163 186.874301 
L 100.018865 179.012403 
L 104.151141 173.395247 
L 108.283417 167.268407 
L 114.481831 157.663942 
L 116.54797 154.560384 
L 119.30282 150.820214 
L 121.368958 148.798584 
L 127.567373 143.187647 
L 129.633511 141.579355 
L 136.520638 136.934882 
L 139.275489 135.454597 
L 142.719052 133.873132 
L 144.096478 133.477667 
L 146.851328 132.862015 
L 148.228754 132.700529 
L 157.870732 132.692711 
L 164.757859 133.536372 
L 166.823997 133.925665 
L 167.512709 134.174263 
L 168.201422 134.57261 
L 169.578848 135.651166 
L 173.022411 137.922458 
L 177.154687 140.369363 
L 181.286963 142.55451 
L 186.107952 144.837788 
L 190.928941 146.863131 
L 197.127356 149.18442 
L 201.948344 150.819436 
L 221.921013 156.915466 
L 228.119427 158.575279 
L 236.383979 160.560187 
L 246.71467 162.775999 
L 254.29051 164.209824 
L 264.6212 165.827879 
L 281.839018 168.225431 
L 299.745548 170.450992 
L 311.453664 171.680976 
L 325.227918 172.89015 
L 339.690885 173.931375 
L 354.842564 174.804862 
L 372.749094 175.607889 
L 392.03305 176.23956 
L 399.636725 176.428518 
L 399.636725 176.428518 
" style="fill:none;stroke:#ff0000;stroke-dasharray:7.4,3.2;stroke-dashoffset:0;stroke-width:2;"/>
   </g>
   <g id="line2d_17">
    <path clip-path="url(#p8d6ef44ddc)" d="M 67.649368 156.488681 
L 71.781644 152.27849 
L 75.225208 149.335832 
L 78.668771 145.85371 
L 84.178473 141.749043 
L 85.555898 140.964912 
L 87.622036 140.082593 
L 90.376887 139.27762 
L 91.754312 138.844932 
L 95.197876 138.902553 
L 100.707577 140.180522 
L 104.839854 140.548544 
L 106.905992 140.658245 
L 109.660843 141.214857 
L 112.415693 142.105019 
L 115.859257 142.863956 
L 118.614108 143.388712 
L 127.567373 144.362943 
L 131.699649 144.466804 
L 138.586776 144.248558 
L 139.964201 144.101848 
L 141.341627 143.766081 
L 143.407765 142.862288 
L 146.851328 141.305 
L 150.294892 139.763971 
L 151.672317 138.532092 
L 153.738455 136.476619 
L 157.182019 132.647194 
L 166.135284 122.939108 
L 170.26756 118.825858 
L 173.022411 116.409474 
L 177.8434 112.336305 
L 181.975676 109.109581 
L 188.17409 104.627443 
L 192.995079 101.334207 
L 197.816068 98.286677 
L 202.637057 95.484074 
L 206.080621 93.711089 
L 213.65646 90.263491 
L 221.921013 86.851444 
L 228.80814 84.284966 
L 236.383979 81.702323 
L 246.025957 78.685971 
L 253.601797 76.56044 
L 261.866349 74.457368 
L 270.819615 72.403143 
L 279.77288 70.534096 
L 288.726145 68.858036 
L 298.368123 67.27371 
L 309.387526 65.697471 
L 322.473067 64.077105 
L 336.247321 62.597715 
L 350.710288 61.253508 
L 367.239393 59.944888 
L 390.655624 58.322226 
L 399.636725 57.769081 
L 399.636725 57.769081 
" style="fill:none;stroke:#008000;stroke-dasharray:7.4,3.2;stroke-dashoffset:0;stroke-width:2;"/>
   </g>
   <g id="patch_3">
    <path d="M 51.05 255.2 
L 51.05 10.8 
" style="fill:none;stroke:#000000;stroke-linecap:square;stroke-linejoin:miter;stroke-width:0.8;"/>
   </g>
   <g id="patch_4">
    <path d="M 51.05 255.2 
L 416.236093 255.2 
" style="fill:none;stroke:#000000;stroke-linecap:square;stroke-linejoin:miter;stroke-width:0.8;"/>
   </g>
   <g id="legend_1">
    <g id="patch_5">
     <path d="M 291.199374 168.275781 
L 405.736093 168.275781 
Q 408.736093 168.275781 408.736093 165.275781 
L 408.736093 100.724219 
Q 408.736093 97.724219 405.736093 97.724219 
L 291.199374 97.724219 
Q 288.199374 97.724219 288.199374 100.724219 
L 288.199374 165.275781 
Q 288.199374 168.275781 291.199374 168.275781 
z
" style="fill:#ffffff;opacity:0.8;stroke:#cccccc;stroke-linejoin:miter;"/>
    </g>
    <g id="line2d_18">
     <path d="M 294.199374 109.871875 
L 324.199374 109.871875 
" style="fill:none;stroke:#0000ff;stroke-dasharray:7.4,3.2;stroke-dashoffset:0;stroke-width:2;"/>
    </g>
    <g id="line2d_19"/>
    <g id="text_15">
     <!-- Patient 1 -->
     <g transform="translate(336.199374 115.121875)scale(0.15 -0.15)">
      <defs>
       <path d="M 19.671875 64.796875 
L 19.671875 37.40625 
L 32.078125 37.40625 
Q 38.96875 37.40625 42.71875 40.96875 
Q 46.484375 44.53125 46.484375 51.125 
Q 46.484375 57.671875 42.71875 61.234375 
Q 38.96875 64.796875 32.078125 64.796875 
z
M 9.8125 72.90625 
L 32.078125 72.90625 
Q 44.34375 72.90625 50.609375 67.359375 
Q 56.890625 61.8125 56.890625 51.125 
Q 56.890625 40.328125 50.609375 34.8125 
Q 44.34375 29.296875 32.078125 29.296875 
L 19.671875 29.296875 
L 19.671875 0 
L 9.8125 0 
z
" id="DejaVuSans-80"/>
       <path d="M 34.28125 27.484375 
Q 23.390625 27.484375 19.1875 25 
Q 14.984375 22.515625 14.984375 16.5 
Q 14.984375 11.71875 18.140625 8.90625 
Q 21.296875 6.109375 26.703125 6.109375 
Q 34.1875 6.109375 38.703125 11.40625 
Q 43.21875 16.703125 43.21875 25.484375 
L 43.21875 27.484375 
z
M 52.203125 31.203125 
L 52.203125 0 
L 43.21875 0 
L 43.21875 8.296875 
Q 40.140625 3.328125 35.546875 0.953125 
Q 30.953125 -1.421875 24.3125 -1.421875 
Q 15.921875 -1.421875 10.953125 3.296875 
Q 6 8.015625 6 15.921875 
Q 6 25.140625 12.171875 29.828125 
Q 18.359375 34.515625 30.609375 34.515625 
L 43.21875 34.515625 
L 43.21875 35.40625 
Q 43.21875 41.609375 39.140625 45 
Q 35.0625 48.390625 27.6875 48.390625 
Q 23 48.390625 18.546875 47.265625 
Q 14.109375 46.140625 10.015625 43.890625 
L 10.015625 52.203125 
Q 14.9375 54.109375 19.578125 55.046875 
Q 24.21875 56 28.609375 56 
Q 40.484375 56 46.34375 49.84375 
Q 52.203125 43.703125 52.203125 31.203125 
z
" id="DejaVuSans-97"/>
       <path d="M 18.3125 70.21875 
L 18.3125 54.6875 
L 36.8125 54.6875 
L 36.8125 47.703125 
L 18.3125 47.703125 
L 18.3125 18.015625 
Q 18.3125 11.328125 20.140625 9.421875 
Q 21.96875 7.515625 27.59375 7.515625 
L 36.8125 7.515625 
L 36.8125 0 
L 27.59375 0 
Q 17.1875 0 13.234375 3.875 
Q 9.28125 7.765625 9.28125 18.015625 
L 9.28125 47.703125 
L 2.6875 47.703125 
L 2.6875 54.6875 
L 9.28125 54.6875 
L 9.28125 70.21875 
z
" id="DejaVuSans-116"/>
       <path d="M 9.421875 54.6875 
L 18.40625 54.6875 
L 18.40625 0 
L 9.421875 0 
z
M 9.421875 75.984375 
L 18.40625 75.984375 
L 18.40625 64.59375 
L 9.421875 64.59375 
z
" id="DejaVuSans-105"/>
       <path d="M 56.203125 29.59375 
L 56.203125 25.203125 
L 14.890625 25.203125 
Q 15.484375 15.921875 20.484375 11.0625 
Q 25.484375 6.203125 34.421875 6.203125 
Q 39.59375 6.203125 44.453125 7.46875 
Q 49.3125 8.734375 54.109375 11.28125 
L 54.109375 2.78125 
Q 49.265625 0.734375 44.1875 -0.34375 
Q 39.109375 -1.421875 33.890625 -1.421875 
Q 20.796875 -1.421875 13.15625 6.1875 
Q 5.515625 13.8125 5.515625 26.8125 
Q 5.515625 40.234375 12.765625 48.109375 
Q 20.015625 56 32.328125 56 
Q 43.359375 56 49.78125 48.890625 
Q 56.203125 41.796875 56.203125 29.59375 
z
M 47.21875 32.234375 
Q 47.125 39.59375 43.09375 43.984375 
Q 39.0625 48.390625 32.421875 48.390625 
Q 24.90625 48.390625 20.390625 44.140625 
Q 15.875 39.890625 15.1875 32.171875 
z
" id="DejaVuSans-101"/>
       <path d="M 54.890625 33.015625 
L 54.890625 0 
L 45.90625 0 
L 45.90625 32.71875 
Q 45.90625 40.484375 42.875 44.328125 
Q 39.84375 48.1875 33.796875 48.1875 
Q 26.515625 48.1875 22.3125 43.546875 
Q 18.109375 38.921875 18.109375 30.90625 
L 18.109375 0 
L 9.078125 0 
L 9.078125 54.6875 
L 18.109375 54.6875 
L 18.109375 46.1875 
Q 21.34375 51.125 25.703125 53.5625 
Q 30.078125 56 35.796875 56 
Q 45.21875 56 50.046875 50.171875 
Q 54.890625 44.34375 54.890625 33.015625 
z
" id="DejaVuSans-110"/>
       <path id="DejaVuSans-32"/>
      </defs>
      <use xlink:href="#DejaVuSans-80"/>
      <use x="55.802734" xlink:href="#DejaVuSans-97"/>
      <use x="117.082031" xlink:href="#DejaVuSans-116"/>
      <use x="156.291016" xlink:href="#DejaVuSans-105"/>
      <use x="184.074219" xlink:href="#DejaVuSans-101"/>
      <use x="245.597656" xlink:href="#DejaVuSans-110"/>
      <use x="308.976562" xlink:href="#DejaVuSans-116"/>
      <use x="348.185547" xlink:href="#DejaVuSans-32"/>
      <use x="379.972656" xlink:href="#DejaVuSans-49"/>
     </g>
    </g>
    <g id="line2d_20">
     <path d="M 294.199374 131.889062 
L 324.199374 131.889062 
" style="fill:none;stroke:#ff0000;stroke-dasharray:7.4,3.2;stroke-dashoffset:0;stroke-width:2;"/>
    </g>
    <g id="line2d_21"/>
    <g id="text_16">
     <!-- Patient 2 -->
     <g transform="translate(336.199374 137.139062)scale(0.15 -0.15)">
      <use xlink:href="#DejaVuSans-80"/>
      <use x="55.802734" xlink:href="#DejaVuSans-97"/>
      <use x="117.082031" xlink:href="#DejaVuSans-116"/>
      <use x="156.291016" xlink:href="#DejaVuSans-105"/>
      <use x="184.074219" xlink:href="#DejaVuSans-101"/>
      <use x="245.597656" xlink:href="#DejaVuSans-110"/>
      <use x="308.976562" xlink:href="#DejaVuSans-116"/>
      <use x="348.185547" xlink:href="#DejaVuSans-32"/>
      <use x="379.972656" xlink:href="#DejaVuSans-50"/>
     </g>
    </g>
    <g id="line2d_22">
     <path d="M 294.199374 153.90625 
L 324.199374 153.90625 
" style="fill:none;stroke:#008000;stroke-dasharray:7.4,3.2;stroke-dashoffset:0;stroke-width:2;"/>
    </g>
    <g id="line2d_23"/>
    <g id="text_17">
     <!-- Patient 3 -->
     <g transform="translate(336.199374 159.15625)scale(0.15 -0.15)">
      <defs>
       <path d="M 40.578125 39.3125 
Q 47.65625 37.796875 51.625 33 
Q 55.609375 28.21875 55.609375 21.1875 
Q 55.609375 10.40625 48.1875 4.484375 
Q 40.765625 -1.421875 27.09375 -1.421875 
Q 22.515625 -1.421875 17.65625 -0.515625 
Q 12.796875 0.390625 7.625 2.203125 
L 7.625 11.71875 
Q 11.71875 9.328125 16.59375 8.109375 
Q 21.484375 6.890625 26.8125 6.890625 
Q 36.078125 6.890625 40.9375 10.546875 
Q 45.796875 14.203125 45.796875 21.1875 
Q 45.796875 27.640625 41.28125 31.265625 
Q 36.765625 34.90625 28.71875 34.90625 
L 20.21875 34.90625 
L 20.21875 43.015625 
L 29.109375 43.015625 
Q 36.375 43.015625 40.234375 45.921875 
Q 44.09375 48.828125 44.09375 54.296875 
Q 44.09375 59.90625 40.109375 62.90625 
Q 36.140625 65.921875 28.71875 65.921875 
Q 24.65625 65.921875 20.015625 65.03125 
Q 15.375 64.15625 9.8125 62.3125 
L 9.8125 71.09375 
Q 15.4375 72.65625 20.34375 73.4375 
Q 25.25 74.21875 29.59375 74.21875 
Q 40.828125 74.21875 47.359375 69.109375 
Q 53.90625 64.015625 53.90625 55.328125 
Q 53.90625 49.265625 50.4375 45.09375 
Q 46.96875 40.921875 40.578125 39.3125 
z
" id="DejaVuSans-51"/>
      </defs>
      <use xlink:href="#DejaVuSans-80"/>
      <use x="55.802734" xlink:href="#DejaVuSans-97"/>
      <use x="117.082031" xlink:href="#DejaVuSans-116"/>
      <use x="156.291016" xlink:href="#DejaVuSans-105"/>
      <use x="184.074219" xlink:href="#DejaVuSans-101"/>
      <use x="245.597656" xlink:href="#DejaVuSans-110"/>
      <use x="308.976562" xlink:href="#DejaVuSans-116"/>
      <use x="348.185547" xlink:href="#DejaVuSans-32"/>
      <use x="379.972656" xlink:href="#DejaVuSans-51"/>
     </g>
    </g>
   </g>
  </g>
 </g>
 <defs>
  <clipPath id="p8d6ef44ddc">
   <rect height="244.4" width="365.186093" x="51.05" y="10.8"/>
  </clipPath>
 </defs>
</svg>
